<svg xmlns="http://www.w3.org/2000/svg" width="2912" height="1572" fill="none"><path fill="#fff" d="M1382.73 1572h-10.31v-10.33h10.31V1572Zm-20.63-82.63h-10.32v-10.33h10.32v10.33ZM10.318 1479.04H0v-10.33h10.318v10.33Zm1227.952 0h-10.32v-10.33h10.32v10.33Zm175.42 0h-10.32v-10.33h10.32v10.33Zm-1300.183-10.33h-10.318v-10.32h10.318v10.32Zm454.032 0H557.22v-10.32h10.319v10.32Zm650.091 0h-10.32v-10.32h10.32v10.32Zm404.5 0h-10.32v-10.32h10.32v10.32Zm-1395.113-10.32h-10.32v-10.33h10.32v10.33Zm1083.483 0h-10.32v-10.33h10.32v10.33Zm-227.01-10.33h-10.32v-10.33h10.32v10.33Zm20.63 0h-10.32v-10.33h10.32v10.33Zm51.6-10.33h-10.32v10.33h-10.32v-10.33h10.32v-10.33h10.32v10.33Zm-309.569 0h-10.32v-10.33h10.32v10.33Zm350.839 0h-10.32v-10.33h10.32v10.33Zm41.28 0h-10.32v-10.33h10.32v10.33Zm198.12-1200.174h10.32v-10.329h10.32v10.329h-10.32v20.657h10.32v-20.657h10.32v20.657h10.32v-20.657h20.64v10.328h10.31v-20.657h10.32v20.657h10.32v-10.328h10.32v-10.329h10.32v10.329h-10.32v10.328h-10.32v30.986h10.32v-30.986h10.32v-10.328h10.32v10.328h-10.32v20.658h10.32v-10.329h10.32v-20.657h10.32v20.657h10.32v-10.329h10.32v10.329h10.31v-20.657h10.32v20.657h-10.32v10.329h20.64v-20.658h30.96v10.329h-20.64v10.329h-10.32v20.657h10.32v10.328h-10.32v10.329h10.32v-10.329h10.32v-10.328h20.64v10.328h10.31V278.87h-20.63v-10.328h20.63v10.328h10.32v-10.328h10.32v10.328h-10.32v20.657H1715V278.87h10.32v10.329h10.32v10.328H1715v10.329h20.64v-10.329h10.32v10.329h-10.32v10.328h10.32v10.329h10.32v-30.986h20.64v10.329h-10.32v20.657h10.32v-10.329h10.31v10.329h-10.31v10.328h-10.32v-10.328h-10.32v10.328h10.32v10.329h-10.32v10.328h10.32V351.17h10.32v-10.329h10.31v10.329h10.32v10.328h10.32V351.17h10.32v20.657h-10.32v20.657h10.32v-20.657h10.32V351.17h-10.32v-10.329h10.32v10.329h10.32v-10.329h10.32v10.329h-10.32v10.328h10.32v10.329h-10.32v10.328h20.64V351.17h10.32v-10.329h10.32v10.329h-10.32v30.985h10.32v-10.328h10.31V351.17h10.32v-10.329h10.32v10.329h-10.32v20.657h-10.32v10.328h-10.31v10.329h-10.32v-10.329h-10.32v10.329h-10.32v20.657h-10.32v-10.329h-10.32v10.329h10.32v10.328h10.32v-10.328h10.32v-20.657h10.32v10.328h10.32v-10.328h10.31v-10.329h10.32v20.657h-10.32v10.329h10.32v10.328h10.32v-10.328h10.32v-10.329h-10.32v-10.328h20.64v-10.329h-30.96v-10.328h30.96v10.328h10.32v-10.328h10.32v10.328h10.32v-10.328h10.32v10.328h-10.32v10.329h-10.32v-10.329h-10.32v10.329h-10.32v20.657h10.32v-10.329h20.64v30.986h-20.64v-10.329h10.32v-10.328h-10.32v10.328h-20.64v10.329h-10.32v10.328h10.32v-10.328h20.64v10.328h-10.32v10.329h10.32v-10.329h20.64v10.329h10.32v-10.329h-10.32v-10.328h10.32v10.328h10.31v-20.657h10.32v30.986h20.64v-10.329h-10.32v-41.314h10.32v30.986h10.32v-10.329h30.96v-10.328h20.64v10.328h10.31v-10.328h10.32v10.328h-10.32v30.986h30.96v-10.329h-20.64v-10.328h20.64v10.328h20.65v-10.328h10.3v10.328h-10.3v10.329h10.3v10.328h-20.63v-10.328h-10.32v10.328h-10.33v10.329h-10.31v-10.329h-10.32v-10.328h-10.31v-30.986h-20.64v20.657h-10.32v-10.328h-20.64v20.657h-10.32v10.328h10.32v-10.328h10.32v10.328h10.32v-10.328h10.32v10.328h10.32v10.329h-10.32v20.657h10.32v-20.657h10.32v10.328h10.31v-10.328h10.32v30.985h10.31v-30.985h10.33v-10.329h10.32v20.657h-10.32v10.329h10.32V485.44h10.33v20.657h10.3V485.44h10.33v10.329h10.3v10.328h10.33v10.329h-10.33v10.328h-10.3v10.329h10.3v-10.329h10.33v-10.328h10.33v-10.329h10.3v-10.328h10.33v10.328h10.32v10.329h-10.32v10.328h10.32v-10.328h20.63v-10.329h10.33v-10.328h10.31v20.657h-10.31v20.657h-10.33v-10.329h-10.32v10.329h10.32v10.328h-10.32v10.329h10.32v10.328h-10.32v10.329h-10.31v-10.329h-10.32v10.329h10.32v10.328h10.31v-10.328h10.32v-10.329h10.33v10.329h10.31v41.314h-10.31v20.657h-10.33v20.657h-10.32v10.329h-10.31v-10.329h-10.32v-10.328h-10.33v10.328h10.33v10.329h10.32v10.328h10.31v10.329h-10.31v10.328h10.31v10.329h-10.31v20.657h10.31v-20.657h10.32v-10.329h10.33v-10.328h10.31v-10.329h10.32v10.329h-10.32v10.328h-10.31v10.329h-10.33v20.657h-10.32v10.328h-30.96v10.329h-10.3v-10.329h10.3v-10.328h10.33v-30.986h-10.33v30.986h-20.63v20.657h10.33v20.657h-10.33V764.31h-10.33v-10.328h-10.3v10.328h10.3v10.329h-10.3v20.657h10.3v-20.657h10.33v10.328h10.33v-10.328h10.3v10.328h10.33v-10.328h10.32v10.328h-10.32v10.329h-10.33v-10.329h-10.3v10.329h-20.66v10.328h-20.63v-10.328h-10.3v-10.329h-10.33v-10.328h-10.32v10.328h10.32v10.329h10.33v10.328h10.3v20.657h10.33v-10.328h10.3v-10.329h20.66v10.329h-20.66v10.328h-10.3v12.395h-10.33v-12.395h-10.3v12.395h-20.65v10.328h-10.33v-10.328h10.33v-22.723h10.32v10.328h10.33v-10.328h-10.33v-10.329h-10.32v-10.328h-10.33v10.328h10.33v10.329h-10.33v22.723h-10.31v-12.395h-10.32v12.395h10.32v10.328h-10.32v10.329h-10.31v-10.329h-10.32v-10.328h-10.32v10.328h10.32v10.329h10.32v20.657h-10.32v-10.329h-10.32v10.329h10.32v20.657h-10.32v-10.329h-10.32V879.99h-10.32v10.328h10.32v10.329h10.32v10.328h10.32v-10.328h10.32v10.328h20.63v-10.328h10.31v-10.329h10.33v10.329h10.32V879.99h10.33v20.657h-10.33v10.328h-10.32v-10.328h-10.33v10.328h-10.31v10.329h-20.63v-10.329h-10.32v20.657h-10.32v-20.657h-20.64v-10.328h-10.32v20.657h-10.32v10.328h10.32v-10.328h10.32v10.328h-10.32v10.329h-10.32v-10.329h-10.32v20.657h-10.32v30.986h-10.32v-30.986h-10.31v10.329h-30.96v10.328h30.96v10.329h-20.64v10.328h-10.32v-10.328h-10.32v-10.329h-10.32v10.329h-10.32v-20.657h-10.32v20.657h-30.95v10.328h-20.64v-10.328h20.64v-10.329h10.32v-10.328h20.63v-10.329h10.32v-10.328h-10.32v-10.329h10.32v10.329h10.32v-20.657h-10.32v-51.643h-10.32v-10.328h10.32v-10.329h-10.32v-10.328h10.32v-12.395h-10.32v-10.328h10.32v-20.657h-20.64v-10.329h10.32V764.31h10.32v-10.328h-20.64v10.328h-10.31v-10.328h10.31v-10.329h-20.63v-10.328h20.63v-10.329h-10.31v-10.328h-10.32v-10.329h10.32v-10.328h-10.32v-20.657h-10.32v20.657h-10.32v-20.657h10.32v-10.329h-20.64v-10.328h-10.32V630.04h10.32v20.657h10.32v-30.986h-20.64v-10.329h-30.96v-10.328h30.96v-10.329h10.32v-10.328h-10.32v-10.329h-10.32V557.74h10.32v-10.329h-10.32v-10.328h-10.32v-10.329h-20.64v10.329h-10.31v20.657h-10.32v20.657h-10.32V557.74h10.32v-10.329h-10.32v-10.328h-10.32v-10.329h10.32v10.329h20.64v-30.986h10.31v10.329h10.32v-10.329h-10.32V485.44h-10.31v-10.328h-10.32v10.328h10.32v20.657h-10.32v-10.328h-10.32V485.44h-10.32v-10.328h10.32v-10.329h10.32v-10.328h-10.32v-10.329h-10.32v-10.328h-10.32v10.328h10.32v10.329h-10.32v10.328h-10.32v-10.328H1715v-10.329h10.32v-20.657H1715v20.657h-10.32v-10.328h-10.32v-10.329h10.32v-10.328h-10.32v10.328h-10.32v-10.328h-20.63v10.328h-10.32v10.329h10.32v-10.329h20.63v10.329h-10.31v10.328h-20.64v10.329h-10.32v10.328h-10.32v-10.328h-10.32v20.657h-10.32v-20.657h10.32v-10.329h10.32v-10.328h-10.32v-20.657h10.32v20.657h10.32v-30.986h-20.64v10.329h-10.32v10.328h-10.31v10.329h-10.32v-10.329h-10.32v10.329h-10.32v-10.329h10.32v-10.328h-10.32v-10.329h-10.32v10.329h-10.32v-10.329h-20.64v-20.657h10.32v10.329h10.32v10.328h10.32v-10.328h20.64v10.328h10.32v-10.328h10.32v-10.329h10.31v10.329h20.64v-10.329h-20.64v-10.328h-10.31v10.328h-10.32v10.329h-10.32v-10.329h-10.32v-10.328h-10.32v-10.329h10.32V351.17h-10.32v10.328h-10.32v10.329h10.32v20.657h-10.32v-10.329h-10.32v-10.328h-10.32v10.328h-10.32v30.986h-10.32v-20.657h-10.31v10.328h-10.32v10.329h-10.32v-10.329h-30.96v10.329h-20.64v10.328h-12.38v-10.328h12.38v-20.657h10.32v10.328h10.32v-10.328h30.96v10.328h10.32v-10.328h10.32v-20.657h-10.32v-10.329h-10.32v10.329h10.32v20.657h-10.32v-10.329h-30.96v10.329h-10.32v-10.329h-10.32v-10.328h-12.38v10.328h12.38v10.329h-12.38v10.328h-20.64v-10.328h-10.32v20.657h-10.31v-10.329h-10.32v20.657h-10.32v-10.328h-10.32v20.657h-10.32v-20.657h-10.32v10.328h-10.32v10.329h-10.32v10.328h-10.32v10.329h-10.32v-10.329h-10.31v10.329h-10.32v10.328h-20.64v10.329h-10.32v10.328h-10.32v10.329h-20.64v20.657h-10.32v-20.657h-10.32v20.657h-10.31v10.328h-10.32v-10.328h-10.32v20.657h-10.32v10.328h-10.32v-10.328h-10.32v20.657h20.64v10.328h-20.64v10.329h-10.32v10.328h-10.32v-10.328h10.32v-30.986h-10.32v30.986h-10.31v-10.329h-10.32v10.329h10.32v20.657h-10.32v-10.329h-10.32v-20.657h-10.32v20.657h-10.32v10.329h10.32v-10.329h10.32v10.329h10.32v10.328h10.32v-10.328h10.31v10.328h10.32v-20.657h10.32v20.657h-10.32v20.658h-10.32v-20.658h-10.31v10.329h-20.64v-10.329h-10.32v20.658h10.32v10.328h-20.64v20.657h10.32v-10.328h10.32v10.328h-10.32v10.329h-10.32v-10.329h-10.32v30.986h10.32v-10.329h10.32v30.986h-10.32v-10.329h-10.32v10.329h-10.32v10.328h-10.32v10.329h-10.32v-20.657h-10.314v20.657h10.314v10.328h-20.634v-10.328h-10.318v10.328h10.318v10.329h20.634v-10.329h10.32v20.657h-20.634v10.329h-10.32V764.31h-10.318v-10.328h-10.319v-10.329h-10.318v10.329h10.318v10.328h10.319v10.329h10.318v10.328h10.32v-10.328h20.634V764.31h10.32v-20.657h-10.32v-10.328h10.32v10.328h10.32v-20.657h10.32v20.657h-10.32v20.657h-10.32v20.657h-20.64v10.329h-10.314v10.328h10.314v-10.328h10.32v10.328h10.32v-20.657h10.32v20.657h-10.32v10.329h-10.32v-10.329h-10.32v20.657h10.32v22.723h-20.634v-10.328h-10.32v10.328h10.32v10.329h-10.32v10.328h-10.318v10.329h10.318v-10.329h10.32v10.329h10.314v10.328h-10.314v10.329h-10.32v-10.329h-10.318v10.329h10.318v10.328h10.32v-10.328h10.314v-10.329h10.32V879.99h10.32v10.328h-10.32v10.329h-10.32v20.657h-10.314v30.985h10.314v-30.985h10.32v30.985h-10.32v10.329h10.32v10.328h10.32v-10.328h10.32v10.328h-10.32v10.329h-10.32v41.315h10.32v20.66h10.32v20.65h-10.32v-10.33h-10.32v-10.32h-10.32v10.32h10.32v10.33h10.32v10.33h10.32v-10.33h10.32v20.66h-10.32v10.33h10.32v10.33h10.32v-10.33h10.32v10.33h-10.32v20.65h10.32v-10.32h10.32v10.32h-10.32v10.33h10.32v20.66h20.63v41.31h20.64v10.33h10.32v20.66h10.32v10.33h30.96v10.33h-10.32v10.32h10.32v-10.32h10.31v10.32h10.32v10.33h-20.63v10.33h20.63v-10.33h10.32v20.66h20.64v20.66h10.32v-10.33h10.32v10.33h-10.32v10.33h30.96v10.32h20.63v10.33h20.64v10.33h-10.32v10.33h10.32v-10.33h20.64v10.33h-10.32v10.33h10.32v-10.33h30.96v20.66h10.32v-20.66h10.32v20.66h-10.32v20.65h20.63v-20.65h10.32v10.33h10.32v20.65h-10.32v-10.33h-10.32v10.33h-20.63v-10.33h-10.32v-10.32h-10.32v10.32h-20.64v-20.65h-10.32v20.65h-10.32v10.33h-20.64v10.33h-10.31v10.33h-20.64v-10.33h20.64v-10.33h10.31v-10.33h-10.31v-10.32h10.31v-10.33h-10.31v-10.33h10.31v-10.33h-10.31v10.33h-10.32v-10.33h-10.32v10.33h10.32v10.33h10.32v10.33h-20.64v10.32h-10.32v-10.32h10.32v-10.33h-10.32v-30.99h-10.32v30.99h-10.32v10.33h-10.32v-10.33h-10.32v10.33h-10.32v-10.33h-10.32v-10.33h10.32v10.33h10.32v-20.66h10.32v-10.33h-10.32v10.33h-30.95v-10.33h20.63v-10.33h-30.95v20.66h-10.32v-20.66h-10.32v10.33h-20.64v-10.33h-10.32v-10.33h-10.32v-10.32h20.64v20.65h20.64v-10.33h10.32v10.33h10.32v-10.33h10.32v-10.32h-10.32v10.32h-10.32v-10.32h-10.32v-10.33h-10.32v10.33h-10.32v-10.33h-10.32v-20.66h-10.32v30.99h-10.31v-30.99h-20.64v10.33h-10.32v-10.33h10.32v-10.33h-10.32v10.33h-10.32v-20.66h-10.32v-10.33h-10.32v20.66h-20.64v10.33h-10.314v10.33h-10.32v-10.33h10.32v-20.66h-10.32v10.33h-10.318v10.33h-10.319v-10.33h-20.64v-10.33h20.64v10.33h10.319v-10.33h10.318v-10.33h10.32v-20.65h-10.32v20.65h-10.318v-20.65h-20.637v10.33h10.318v10.32h-20.64v-30.98h-10.318v30.98h-10.32v10.33h-10.317v10.33h-20.638v-20.66h10.318v10.33h10.32v-10.33h10.317v-10.32h-20.637v-10.33h-10.318v-10.33h-10.32v10.33h-10.317v10.33h-10.32v10.32h-20.638v-10.32h20.638v-10.33h-10.318v-30.99h-10.32v-10.33h-10.317v20.66h10.317v20.66h-10.317v-10.33h-10.322v10.33h-10.318v-10.33h10.318v-10.33h-10.318v-10.33h-10.32v20.66h-10.317v-20.66h-10.32v-10.33h-10.318v30.99h-10.32v-30.99h-10.318v10.33h-10.319v-10.33h-10.318v-20.65h-10.32v10.33h-10.318v-10.33h10.318v-20.66h10.32v-10.33h20.637v10.33h-20.637v10.33h10.318v30.98h10.319v-20.65h20.638v10.33h-10.32v10.32h10.32v-10.32h10.318v10.32h10.32v-10.32h10.317v10.32h10.32v-10.32h10.318v-10.33h-10.318v-10.33h-10.32v10.33h-10.317v10.33h-10.32v-10.33h-10.318v-10.33h20.638v-10.33h10.317v-20.66h10.32v-10.33h-10.32v10.33h-10.317v20.66h-20.638v10.33h-20.638v-10.33h10.318v-10.33h20.638v-10.33h-20.638v-51.64h-10.318v-10.33h-10.319v10.33h-10.318v-20.66h10.318v-10.33h10.319v10.33h10.318v-10.33h-10.318v-10.32h-10.319v-10.33h-10.318v-10.33h10.318v-10.33h-10.318v-10.33h10.318v-20.655h-10.318v-20.657h10.318v10.328h20.637v-10.328h10.32v-10.329h10.318v-10.328h-10.318v10.328h-10.32v-10.328h-10.318v-20.657h-10.319v20.657h-10.318v20.657h-10.32v20.657h-10.318v-30.986h-10.321v10.329h-20.638v-10.329h20.638v-10.328h10.321v10.328h10.318v-10.328h10.32v-20.657h-10.32v-20.657h-10.318v-10.329h10.318v10.329h10.32v-10.329h10.318v10.329h-10.318v10.328h20.637V879.99h10.318v-10.329h10.32v-10.328h10.318v10.328h-10.318v10.329h-10.32v51.642h10.32v-41.314h10.318v20.657h10.32v-20.657h-10.32v-20.657h10.32v10.329h10.317v-10.329h10.32v-10.328h-10.32v-10.329h10.32v-22.723h-10.32v-10.328h-10.317v10.328h-10.32v12.395h-20.638v10.328h-20.637v-10.328h-10.318v-12.395h10.318v-10.328h10.319v10.328h-10.319v12.395h20.637v-12.395h20.638v-10.328h10.32v-10.329h10.317v10.329h10.32V764.31h20.64v-10.328h-10.322v-30.986h10.322v20.657h10.317v20.657h10.32v-20.657h10.318v10.329h10.32v-10.329h-10.32v-10.328h10.32v-10.329h10.317v-20.657h10.32v-10.328h-10.32v10.328h-10.317v20.657h-10.32v10.329h-10.318v-20.657h-10.32v10.328h-10.317v-10.328h-10.322v10.328h-10.318v10.329h-10.32v-10.329h10.32v-10.328h10.318v-20.657h-10.318v-10.329h10.318v10.329h10.322v-10.329h10.317v10.329h-10.317v20.657h10.317v-10.329h10.32v10.329h10.318v-20.657h-10.318v-10.329h10.318v-10.328h10.32v20.657h10.317v-30.986h-10.317v-10.328h-10.32v-10.329h10.32v-20.657h10.317v20.657h-10.317v10.329h20.637v-30.986h10.318v-10.329h-10.318v-10.328h20.638v-10.329h-10.32v-10.328h10.32v10.328h10.317v-20.657h10.32V557.74h10.318v-10.329h20.64v-20.657h-10.318v10.329h-10.322v10.328h-10.318v-10.328h10.318v-10.329h-10.318v-10.328h10.318v10.328h10.322v-20.657h10.318v20.657h10.319v-30.985h10.318V485.44h-10.318v10.329h-10.319V485.44h10.319v-10.328h-10.319v-10.329h20.637v20.657h10.32v-30.985h-10.32v-10.329h10.32v10.329h10.314v-10.329h10.32v-10.328h10.32v-10.329h10.32v-10.328h-10.32v10.328h-10.32v-10.328h10.32v-10.329h10.32v-10.328h10.32v10.328h-10.32v10.329h20.64v-30.986h20.64v-20.657h10.32V351.17h10.31v-10.329h10.32v10.329h10.32v-20.657h10.32v20.657h10.32v-41.314h10.32v20.657h10.32v-20.657h10.32v-10.329h10.31v10.329h10.32v-20.657h10.32v10.328h10.32v-10.328h10.32v-20.657h10.32v20.657h10.32v-20.657h10.32v-10.329h20.64v20.657h10.31v-30.986h10.32v20.658h10.32v-10.329h20.64v-10.329h10.32v10.329h10.32v-20.657h10.32v20.657h10.32v-20.657h10.32v10.328h10.31v10.329h10.32v-20.657h10.32v20.657h10.32v-20.657h12.38v-10.329h10.32v10.329ZM1310.5 1417.07v10.33h-10.32v10.33h-10.32v-10.33h10.32v-10.33h10.32Zm20.64 20.66h-10.32v-10.33h10.32v10.33ZM82.551 1427.4h-10.32v-10.33h10.32v10.33Zm443.713 0h-10.319v-10.33h10.319v10.33Zm825.516 0h-10.32v-10.33h10.32v10.33Zm74.29-20.66h10.32v-10.32h10.32v10.32h-10.32v10.33h-10.32v10.33h-12.38v-10.33h12.38v-10.33h-12.38v-20.65h12.38v20.65Zm20.64 10.33v10.33h-10.32v-10.33h10.32Zm51.6 10.33h-10.32v-10.33h10.32v10.33Zm-1333.207-10.33h-10.32v-10.33h10.32v10.33Zm608.814 0h-20.638v-10.33h20.638v10.33Zm858.533 0h-10.32v-10.33h10.32v10.33Zm30.96 0h-10.32v-10.33h10.32v10.33Zm-1549.903-10.33h-10.318v-10.32h10.318v10.32Zm196.058 0h-10.318v-10.32h10.318v10.32Zm268.294 0h-10.32v-10.32h10.32v10.32Zm20.638 0h-10.318v-10.32h10.318v10.32Zm268.292 0h-10.32v-10.32h10.32v10.32Zm144.461 0h-10.32v-10.32h10.32v10.32Zm20.64 0h-10.32v-10.32h10.32v10.32Zm144.46 0h-10.31v-10.32h10.31v10.32Zm51.6-10.32v10.32h-10.32v-10.32h10.32Zm51.59 10.32h20.64v-10.32h-20.64v10.32Zm229.08 0h-10.31v-10.32h10.31v10.32Zm-1312.561-10.32h-10.318v-10.33h10.318v10.33Zm175.421 0h-20.638v-10.33h20.638v10.33Zm309.567 0h-10.32v-10.33h10.32v10.33Zm51.595 0h-10.318v-10.33h10.318v10.33Zm392.118 0h-20.64v-10.33h20.64v10.33Zm20.64-10.33h10.32v-10.33h10.32v10.33h-10.32v10.33h-10.32v-10.33h-10.32v-10.33h10.32v10.33Zm185.74 10.33h10.32v-20.66h-10.32v20.66Zm332.27 0h-10.32v-10.33h10.32v10.33Zm-1374.48-10.33h-10.32v-10.33h10.32v10.33Zm103.187 0H381.8v-10.33h10.317v10.33Zm268.292 0h-10.317v-10.33h10.317v10.33Zm144.465 0h-10.32v-10.33h10.32v10.33Zm165.104 0h-10.319v-10.33h10.319v10.33Zm82.552 0h-10.32v-10.33h10.32v10.33Zm154.78 0h10.32v-20.66h-10.32v20.66Zm82.55 0h10.32v-10.33h-10.32v10.33Zm394.18 0h-10.31v-10.33h10.31v10.33Zm-1508.619-10.33h-10.318v-10.33h10.318v10.33Zm144.464 0h-10.32v-10.33h10.32v10.33Zm546.904 0h-10.32v-10.33h10.32v10.33Zm20.637 0h-10.32v-10.33h10.32v10.33Zm123.824 0h-10.32v-10.33h10.32v10.33Zm103.19 0h-10.32v-10.33h10.32v10.33Zm299.25 0h-30.96v-10.33h30.96v10.33Zm22.7 0h-10.32v-10.33h10.32v10.33Zm113.51-10.33h-10.32v10.33h-10.32v-10.33h10.32v-10.33h10.32v10.33Zm72.23 0h-10.32v10.33h-10.31v-10.33h10.31v-10.33h10.32v10.33Zm-1219.693 0h-10.32v-10.33h10.32v10.33Zm144.465 0h-10.32v-10.33h10.32v10.33Zm20.637 0H557.22v-10.33h10.319v10.33Zm41.277 0h-10.319v-10.33h10.319v10.33Zm113.508 0h-10.32v-10.33h10.32v10.33Zm30.955 0h-10.318v-10.33h10.318v10.33Zm278.611-10.33h10.32v-10.33h10.32v10.33h-10.32v10.33h-10.32v-10.33h-10.32v-10.33h10.32v10.33Zm41.28 0v10.33h-20.64v-10.33h20.64Zm590.24 10.33h-30.96v-10.33h20.64v-10.33h10.32v20.66Zm20.63 0h-10.31v-10.33h10.31v10.33ZM206.38 1355.1h-10.321v-10.33h10.321v10.33Zm278.609 0h-10.32v-10.33h10.32v10.33Zm216.697 0h-10.321v-10.33h10.321v10.33Zm123.828 0h-10.322v-10.33h10.322v10.33Zm113.505-10.33v10.33h-10.318v-10.33h10.318Zm154.781 0v10.33h-10.31v-10.33h10.31Zm123.83 10.33h10.32v-10.33h-10.32v10.33Zm41.28 0h10.32v-10.33h-10.32v10.33Zm456.09 0h-10.32v-10.33H1715v10.33Zm20.64 0h-10.32v-10.33h10.32v10.33Zm30.96 0h-20.64v-10.33h20.64v10.33Zm20.63 0h-10.31v-10.33h10.31v10.33Zm-579.92-10.33h10.32v-10.33h-10.32v10.33Zm-123.82-10.33v10.33h-10.32v-10.33h10.32Zm-154.789 10.33h-20.637v-10.33h20.637v10.33Zm-495.309 0h-10.317v-10.33h10.317v10.33Zm206.38 0h-10.318v-10.33h10.318v10.33Zm165.102 0h-20.637v-10.33h20.637v10.33Zm381.796 0h10.32v-10.33h-10.32v10.33Zm51.6 0h10.32v-10.33h-10.32v10.33Zm394.18 0h-10.32v-10.33h10.32v10.33Zm247.66 0h-10.32v-10.33h10.32v10.33Zm-703.76-10.33h10.32v-10.32h-10.32v10.32Zm-103.18-10.32v10.32h-10.32v-10.32h10.32Zm-712.008 10.32h-10.32v-10.32h10.32v10.32Zm134.145 0h-10.318v-10.32h10.318v10.32Zm103.19 0h-10.318v-10.32h10.318v10.32Zm92.868-10.32h-10.318v10.32h-10.32v-10.32h10.32v-10.33h10.318v10.33Zm61.914 10.32h-10.318v-10.32h10.318v10.32Zm103.19-10.32h-10.318v10.32h-10.32v-10.32h10.32v-10.33h10.318v10.33Zm20.637 10.32h-10.317v-10.32h10.317v10.32Zm82.553 0h-10.318v-10.32h10.318v10.32Zm41.271 0h-20.634v-10.32h20.634v10.32Zm20.64 0h-10.32v-10.32h10.32v10.32Zm113.51 0h-10.32v-10.32h10.32v10.32Zm196.06 0h-10.32v-10.32h10.32v10.32Zm30.96 0h-10.32v-10.32h10.32v10.32Zm445.77 0h-10.32v-10.32h10.32v10.32Zm144.47 0h-10.32v-10.32h10.32v10.32Zm-920.45-51.64v10.33h-10.32v10.33h10.32v-10.33h10.32v20.66h20.64v-10.33h10.32v10.33h-10.32v10.33h-20.64v-10.33h-20.64v-10.33h-10.32v10.33h-10.32v-10.33h10.32v-10.33h10.32v-10.33h10.32Zm-753.28 41.32h-10.318v-10.33h10.318v10.33Zm381.799 0h-10.317v-20.66h10.317v20.66Zm123.828-10.33h-10.32v10.33h-10.318v-10.33h10.318v-10.33h10.32v10.33Zm144.464 10.33h-10.32v-10.33h10.32v10.33Zm278.609 0h10.32v-10.33h-10.32v10.33Zm373.55 0h-10.32v-10.33h10.32v10.33Zm41.27 0h-10.32v-10.33h10.32v10.33Zm123.83 0h-10.32v-10.33h10.32v10.33Zm-1591.177-10.33h-10.318v-10.33h10.318v10.33Zm381.799 0h-10.318v-10.33h10.318v10.33Zm103.19 0h-10.318v-10.33h10.318v10.33Zm113.507 0h-10.318v-10.33h10.318v10.33Zm123.827-10.33v10.33h-10.317v-10.33h10.317Zm30.958 10.33h-20.638v-10.33h20.638v10.33Zm61.914 0h-10.319v-10.33h10.319v10.33Zm175.422 0h10.32v-10.33h-10.32v10.33Zm30.95 0h10.32v-10.33h-10.32v10.33Zm487.06 0h-10.32v-10.33h10.32v10.33Zm-796.621-10.33h-10.32v-20.66h10.32v20.66Zm-650.092 0H206.38v-10.33h10.317v10.33Zm30.958 0h-10.32v-10.33h10.32v10.33Zm227.014 0h-10.317v-10.33h10.317v10.33Zm123.828 0h-20.638v-10.33h20.638v10.33Zm20.637 0h-10.318v-10.33h10.318v10.33Zm113.508-10.33h-10.318v10.33h-10.32v-10.33h10.32v-10.33h10.318v10.33Zm92.872 10.33h-10.322v-10.33h10.322v10.33Zm113.505-10.33v10.33h-10.318v-10.33h10.318Zm185.741 10.33h10.32v-10.33h-10.32v10.33Zm134.15 0h-10.32v-10.33h10.32v10.33Zm41.27-10.33h-10.32v10.33h-10.32v-10.33h10.32v-10.33h10.32v10.33Zm445.78 0h-10.32v10.33h-30.96v-10.33h30.96v-10.33h10.32v10.33Zm10.32 0v10.33h-10.32v-10.33h10.32Zm-641.84 0h10.32v-10.33h-10.32v10.33Zm-185.739 0h-10.32v-10.33h10.32v10.33ZM381.8 1282.8h-20.638v10.33h-10.32v-10.33h10.32v-10.33H381.8v10.33Zm185.739 10.33H557.22v-10.33h10.319v10.33Zm103.188 0h-10.318v-10.33h10.318v10.33Zm20.638 0h-10.318v-10.33h10.318v10.33Zm103.189 0h-10.317v-10.33h10.317v10.33Zm350.846 0h10.32v-10.33h-10.32v10.33Zm185.74 0h-10.32v-10.33h10.32v10.33Zm20.64 0h-10.32v-10.33h10.32v10.33Zm456.09 0h-10.32v-10.33h10.32v10.33Zm-672.79-10.33h10.32v-10.33h-10.32v10.33Zm-825.515 0h-10.318v-10.33h10.318v10.33Zm20.64 0h-10.32v-10.33h10.32v10.33Zm206.377 0h-10.318v-10.33h10.318v10.33Zm227.017 0h-10.32v-10.33h10.32v10.33Zm82.552 0h-20.637v-10.33h20.637v10.33Zm227.019 0h10.32v-10.33h-10.32v10.33Zm414.82 0h-10.32v-10.33h10.32v10.33Zm30.95 0h-10.32v-10.33h10.32v10.33Zm134.15 0h-10.32v-10.33h10.32v10.33Zm113.51 0h-10.32v-10.33h10.32v10.33Zm92.87 0h-10.32v-10.33h10.32v10.33Zm-796.62-10.33h10.32v-10.33h-10.32v10.33Zm-123.831-10.33v10.33h-10.318v-10.33h10.318Zm-712.002 10.33h-10.32v-10.33h10.32v10.33Zm185.738 0h-10.318v-10.33h10.318v10.33Zm20.637 0h-10.317v-10.33h10.317v10.33Zm237.335-20.65v20.65h-20.635v-10.33h10.317v-10.32h10.318Zm20.638 20.65h-10.318v-10.33h10.318v10.33Zm30.959 0h-10.32v-10.33h10.32v10.33Zm20.637 0h-10.319v-10.33h10.319v10.33Zm61.913 0h-10.32v-10.33h10.32v10.33Zm165.104 0h-10.319v-10.33h10.319v10.33Zm30.952 0h10.32v-20.65h-10.32v20.65Zm92.87 0h10.32v-10.33h-10.32v10.33Zm20.64 0h10.32v-10.33h-10.32v10.33Zm134.15 0h-10.32v-10.33h10.32v10.33Zm51.59-10.33v10.33h-10.32v-10.33h10.32Zm280.68 10.33h-10.32v-10.33h10.32v10.33Zm206.37 0h-10.31v-10.33h10.31v10.33Zm30.96 0h-10.32v-10.33h10.32v10.33Zm-528.33-10.33h-20.63v-10.32h20.63v10.32Zm-402.434-20.65v20.65h-10.32v-20.65h10.32Zm-340.524 20.65h-10.32v-10.32h10.32v10.32Zm41.277 0h-10.32v-10.32h10.32v10.32Zm30.955 0h-10.318v-10.32h10.318v10.32Zm20.638 0h-10.318v-10.32h10.318v10.32Zm185.742 0h-10.322v-10.32h10.322v10.32Zm227.016-10.32h-10.32v10.32h10.32v-10.32h10.32v-10.33h-10.32v10.33Zm175.42 10.32h-10.32v-10.32h10.32v10.32Zm134.15 0h-10.32v-10.32h10.32v10.32Zm590.24 0h-10.32v-10.32h10.32v10.32Zm-1291.931-20.65v10.33h-10.317v-10.33h10.317Zm-92.87 10.33H557.22v-10.33h10.319v10.33Zm165.103-30.99v10.33h-10.318v10.33h-10.32v10.33h-10.318v-10.33h10.318v-10.33h10.32v-10.33h10.318Zm10.319 30.99h-10.319v-10.33h10.319v10.33Zm30.956-20.66v10.33h10.32v10.33h-20.638v-20.66h10.318Zm247.653 20.66h10.32v-10.33h-10.32v10.33Zm61.92 0h10.31v-10.33h-10.31v10.33Zm237.33 0h-10.32v-10.33h10.32v10.33Zm20.64 0h-10.32v-10.33h10.32v10.33Zm208.44 0h-10.32v-10.33h10.32v10.33Zm41.28 0h-10.32v-10.33h10.32v10.33Zm144.46 0h-10.32v-10.33h10.32v10.33Zm61.91 0h-10.32v-10.33h10.32v10.33Zm-1147.458-20.66v10.33h-10.32v-10.33h10.32Zm-206.38 10.33h-10.32v-10.33h10.32v10.33Zm237.335-10.33v10.33h-10.32v-10.33h10.32Zm175.422 10.33h10.32v-20.66h-10.32v20.66Zm51.595 0h10.317v-10.33h-10.317v10.33Zm92.866 0h10.32v-10.33h-10.32v10.33Zm216.7 0h-41.28v-10.33h41.28v10.33Zm30.96 0h-10.32v-10.33h-10.32v-10.33h20.64v20.66Zm187.8 0h-22.7v-10.33h22.7v10.33Zm92.87 0h-10.32v-10.33h10.32v10.33Zm299.25-30.99v20.66h-10.32v10.33h-10.32v-10.33h-10.32v-10.33h10.32v10.33h10.32v-20.66h10.32Zm51.6 30.99h-10.32v-10.33h10.32v10.33Zm-982.366-10.33h10.32v-10.33h-10.32v10.33Zm-227.017-10.33v10.33h-10.318v-10.33h10.318Zm-30.955-20.66v10.33h20.637v-10.33h10.318v10.33h-10.318v10.33h-20.637v10.33h-10.318v-10.33h10.318v-10.33h-10.318v-10.33h10.318Zm-30.956 20.66h-10.319v10.33h-20.638v-10.33h20.638v-10.33h10.319v10.33Zm10.318 0v10.33h-10.318v-10.33h10.318Zm82.552 0v10.33h-10.321v-10.33h10.321Zm278.61 10.33h10.32v-10.33h-10.32v10.33Zm41.274 0h10.32v-10.33h-10.32v10.33Zm72.23 0h10.32v-10.33h-10.32v10.33Zm175.43 0h-10.32v-20.66h10.32v20.66Zm123.82-30.99h-20.63v10.33h-20.64v10.33h-10.32v-10.33h-41.28v10.33h-10.32v10.33h-10.32v-20.66h20.64v-10.33h41.28v10.33h10.32v-10.33h20.64v-10.32h20.63v10.32Zm-61.91 30.99h-10.32v-10.33h10.32v10.33Zm72.23 0h-10.32v-10.33h10.32v10.33Zm74.3 0h-10.32v-10.33h10.32v10.33Zm103.19 0h-10.32v-10.33h10.32v10.33Zm268.29 0h-10.32v-10.33h10.32v10.33Zm41.27-10.33h10.32v-10.33h10.32v10.33h-10.32v10.33h-10.32v-10.33h-10.31v-10.33h10.31v10.33Zm41.28 10.33h-10.32v-10.33h10.32v10.33ZM722.324 1210.5v10.33h-10.32v-10.33h10.32Zm-30.959 10.33h-10.318v-10.33h10.318v10.33Zm-278.61 0h-10.318v-10.33h10.318v10.33Zm20.637 0h-10.317v-10.33h10.317v10.33Zm30.96 0h-10.32v-10.33h10.32v10.33Zm412.754 0h10.32v-10.33h-10.32v10.33Zm61.913 0h10.322v-10.33h-10.322v10.33Zm443.711-10.33v10.33h-10.31v-10.33h10.31Zm53.66 10.33h-10.32v-10.33h10.32v10.33Zm82.55 0h-10.32v-10.33h10.32v10.33Zm30.96 0h-20.64v-10.33h20.64v10.33Zm113.51 0h-10.32v-10.33h10.32v10.33Zm319.88 0h-10.31v-10.33h10.31v10.33Zm-165.1-10.33h-10.32v-10.33h10.32v10.33Zm-1106.186 0h-10.318v-10.33h10.318v10.33Zm-392.119 0h-10.32v-10.33h10.32v10.33Zm268.294 0h-10.32v-10.33h10.32v10.33Zm216.695 0h10.318v-10.33h-10.318v10.33Zm51.595 0h10.32v-10.33h-10.32v10.33Zm41.275 0h10.32v-10.33h-10.32v10.33Zm61.915 0h10.319v-10.33h-10.319v10.33Zm538.651 0h-10.32v-10.33h10.32v10.33Zm371.48-20.65v10.32h-10.32v10.33h-10.32v-10.33h10.32v-10.32h10.32Zm175.42 20.65h-10.32v-10.33h10.32v10.33Zm-1178.421-30.98h-10.32v10.33h-10.318v10.32h10.318v-10.32h10.32v-10.33h10.317v-10.33h-10.317v10.33Zm-206.38 0v20.65h-10.317v-20.65h10.317Zm10.318-30.99v10.33h-10.318v10.33h-10.317v10.33h-10.32v10.33h-10.318v10.32h-10.32v-10.32h10.32v-10.33h10.318v-10.33h-10.318v-10.33h10.318v10.33h10.32v-10.33h10.317v-10.33h10.318Zm-216.695 51.64h-10.32v-10.32h10.32v10.32Zm92.87 0h-10.32v-10.32h10.32v10.32Zm20.637 0H557.22v-10.32h10.319v10.32Zm350.842 0h10.32v-10.32h-10.32v10.32Zm123.829 0h10.32v-10.32h-10.32v10.32Zm414.82-30.98h10.32v-10.33h20.64v10.33h-20.64v10.33h-10.32v-10.33h-10.32v20.66h-10.32v10.32h-10.32v-10.32h-22.7v-10.33h10.32v-10.33h12.38v20.66h10.32v-20.66h10.32v-10.33h10.32v10.33Zm123.83 30.98h-10.32v-10.32h10.32v10.32Zm113.5 0h-10.32v-10.32h10.32v10.32Zm206.38-103.28v20.66h-20.63v10.32h10.31v10.33h-10.31v10.33h-10.32v20.66h10.32v-10.33h10.31v10.33h-10.31v10.33h-20.64v10.33h-10.32v-10.33h-10.32v20.65h-10.32v-20.65h10.32v-10.33h10.32v10.33h10.32v-30.99h10.32v-30.98h10.32v-10.33h10.31v-10.33h10.32Zm-1405.433 92.96h-10.318v-20.66h10.318v20.66Zm113.509-51.65v20.66h10.318v-10.33h10.32v-10.33h30.955v10.33h-10.317v10.33h-10.32v-10.33h-10.318v10.33h-10.32v10.33h-10.318v20.66h-10.319v-20.66h10.319v-10.33h-10.319v-20.66h10.319Zm92.87 20.66v10.33h-10.321v10.33h-10.318v10.33h-10.32v-10.33h10.32v-10.33h10.318v-10.33h10.321Zm103.188 30.99h-10.32v-10.33h10.32v10.33Zm20.64 0h10.317v-10.33h-10.317v10.33Zm61.912 0h10.318v-10.33h-10.318v10.33Zm51.593 0h10.322v-10.33h-10.322v10.33Zm610.881 0h-10.32v-10.33h10.32v10.33Zm72.23 0h-10.32v-10.33h10.32v10.33Zm41.28 0h-10.32v-10.33h10.32v10.33Zm-1291.93-20.66h-10.318v10.33h-10.32v-10.33h10.32v-10.33h10.318v10.33Zm154.784 10.33h-10.319v-10.33h10.319v10.33Zm41.275 0H557.22v-10.33h10.319v10.33Zm423.077 0h10.314v-10.33h-10.314v10.33Zm528.324 0h-10.32v-10.33h10.32v10.33Zm72.24 0h-20.64v-10.33h20.64v10.33Zm319.88 0h-10.32v-10.33h10.32v10.33Zm41.28-10.33h-10.32v10.33h-20.64v-10.33h20.64v-10.33h10.32v10.33Zm-1684.048 0h-10.32v-10.33h10.32v10.33Zm319.887-10.33v10.33h-10.32v-10.33h10.32Zm227.013 10.33h10.322v-10.33h-10.322v10.33Zm30.959-10.33h-10.32v10.33h10.32v-10.33h10.318v-10.33h-10.318v10.33Zm51.593 10.33h10.32v-10.33h-10.32v10.33Zm734.706 0h-10.32v-20.66h10.32v20.66Zm82.55 0h-10.32v-20.66H1715v20.66Zm268.29 0h-10.31v-10.33h10.31v10.33Zm-1178.416-10.33h10.318v-10.33h-10.318v10.33Zm-61.913-20.66h-20.637v10.33h-20.638v-10.33h-10.321v20.66h-10.318v-20.66h-10.32v-10.33h-10.318v-10.32h10.318v10.32h10.32v-10.32h10.318v10.32h-10.318v10.33h10.318v-10.33h10.321v10.33h20.638v-10.33h-10.32v-10.32h-10.318v-10.33h20.638v-10.33h10.318v-10.33h10.319v51.64Zm-165.102 10.33v10.33h-10.32v-10.33h10.32Zm-72.232 0v10.33h-10.32v-10.33h10.32Zm546.903 10.33h10.32v-10.33h-10.32v10.33Zm497.37-20.66h-10.32v10.33h-20.64v10.33h-20.63v-10.33h20.63v-10.33h20.64v-10.33h10.32v10.33Zm371.48 20.66h-10.32v-10.33h10.32v10.33Zm-1085.549-10.33h10.32v-10.33h-10.32v10.33Zm-268.292 0H557.22v-20.66h10.319v20.66Zm-72.232 0h-10.318v-10.33h10.318v10.33Zm257.972 0h-10.318v-10.33h10.318v10.33Zm123.827 0h10.32v-10.33h-10.32v10.33Zm41.275 0h10.32v-10.33h-10.32v10.33Zm92.869 0h10.32v-10.33h-10.32v10.33Zm569.61 0h-10.32v-10.33h10.32v10.33Zm247.65 0h-10.32v-10.33h10.32v10.33Zm72.23-10.33v10.33h-10.32v-10.33h10.32Zm-1302.243 0h-20.638v-10.33h20.638v10.33Zm-196.06 0h-10.32v-10.33h10.32v10.33Zm412.755 0h10.322v-10.33h-10.322v10.33Zm786.308 0h-10.32v-20.65h10.32v20.65Zm41.27 0h-10.32v-10.33h10.32v10.33Zm309.57-10.33v10.33h-10.32v-10.33h10.32Zm92.87 10.33h-10.32v-10.33h10.32v10.33Zm-103.19-10.33h-10.32v-10.32h10.32v10.32Zm-1487.988 0h-10.32v-10.32h10.32v10.32Zm72.232 0h-10.319v-10.32h10.319v10.32Zm92.87 0h-10.318v-10.32h10.318v10.32Zm20.638-41.31v30.99h10.32v-10.33h10.317v10.33h-10.317v10.32h-10.32v-10.32h-10.318v-30.99h10.318Zm82.552 41.31h10.318v-20.65h-10.318v20.65Zm72.23-20.65h-10.317v10.33h-10.32v10.32h10.32v-10.32h10.317v-10.33h10.32v-10.33h-10.32v10.33Zm786.306 20.65h-20.64v-10.32h20.64v10.32Zm51.59-20.65h-10.32v20.65h-10.32v-20.65h10.32v-10.33h10.32v10.33Zm51.59 20.65h-10.31v-20.65h10.31v20.65Zm61.92-10.32v10.32h-10.32v-10.32h10.32Zm-10.32 0h-10.32v-10.33h10.32v10.33Zm-1384.798 0h-10.317v-10.33h10.317v10.33Zm123.827 0h-10.317v-10.33h10.317v10.33Zm72.233 0h-10.32v-20.66h10.32v20.66Zm278.612 0h10.317v-10.33h-10.317v10.33Zm30.955 0h10.32v-10.33h-10.32v10.33Zm165.101 0h10.32v-10.33h-10.32v10.33Zm371.48 0h-10.32v-10.33h10.32v10.33Zm414.82 0h-10.32v-10.33h10.32v10.33Zm123.83-10.33h-10.32v10.33h-10.32v-10.33h10.32v-10.33h10.32v10.33Zm-1230.014-10.33v10.33h-20.639v-10.33h20.639Zm-175.422 10.33h-10.319v-10.33h10.319v10.33Zm61.915-10.33h10.318v-10.33h10.319v10.33h-10.319v10.33h-10.318v-10.33h-20.64v10.33H557.22v-10.33h10.319v-10.33h20.64v10.33Zm30.955 0v10.33h-10.318v-10.33h10.318Zm144.465 10.33h10.318v-10.33h-10.318v10.33Zm154.782 0h10.32v-10.33h-10.32v10.33Zm775.979-20.66h-30.95v20.66h-20.64v-10.33h10.32v-10.33h10.32v-10.33h30.95v10.33Zm20.64 20.66h-10.32v-10.33H1715v10.33Zm61.92 0h-10.32v-10.33h10.32v10.33Zm72.23 0h-10.32v-10.33h10.32v10.33Zm113.51 0h-10.32v-10.33h10.32v10.33Zm92.87 0h-10.32v-10.33h10.32v10.33Zm-165.11-10.33h-20.63v-10.33h20.63v10.33Zm-837.89-10.33v10.33h-10.32v-10.33h10.32Zm-371.483-10.33h20.639v-10.33h10.318v20.66h-30.957v10.33h-10.32v-10.33h10.32v-10.33h-10.32v-20.66h10.32v20.66Zm-371.482 20.66h-10.318v-10.33h10.318v10.33Zm350.844-20.66v20.66h-10.317v-20.66h10.317Zm61.915 20.66h-10.32v-10.33h10.32v10.33Zm92.868 0h10.322v-10.33h-10.322v10.33Zm61.914 0h10.32v-10.33h-10.32v10.33Zm123.824 0h10.32v-10.33h-10.32v10.33Zm745.03-10.33v10.33h-10.32v-10.33h10.32Zm257.97 10.33h-10.32v-10.33h10.32v10.33Zm103.18 0h-10.31v-10.33h10.31v10.33Zm-371.47-10.33h-10.32v-10.33h10.32v10.33Zm-1106.186 0h-10.32v-10.33h10.32v10.33Zm-144.465 0h-10.32v-10.33h10.32v10.33Zm278.61 0h10.318v-10.33h-10.318v10.33Zm20.638 0h10.317v-10.33h-10.317v10.33Zm144.464 0h10.318v-10.33h-10.318v10.33Zm30.958 0h10.319v-10.33h-10.319v10.33Zm806.941 0h-10.32v-10.33h10.32v10.33Zm185.74-30.99v10.33h-10.32v10.33h-20.64v10.33h-20.64v-20.66h10.32v10.33h10.32v-10.33h20.64v-10.33h10.32Zm0 20.66v10.33h-10.32v-10.33h10.32Zm185.75 10.33h-10.33v-10.33h10.33v10.33Zm-1384.811-10.33h10.32v-10.33h-10.32v10.33Zm-30.955-92.955v20.655h-10.32v10.33h-10.318v10.33h-20.639v10.33h-10.32v10.33h-10.318v20.65h-10.317v10.33h-10.32v-10.33h10.32v-10.33h-10.32v-10.32h-10.318v-20.66h20.638v-10.33h10.317v10.33h-10.317v10.33h-10.32v10.33h20.637v-10.33h10.318v-10.33h10.32v-10.33h-10.32v-10.33h10.32v10.33h20.639v-10.33h-10.321v-10.327h10.321v10.327h10.318v-20.655h10.32Zm-206.379 92.955h-10.318v-10.33h10.318v10.33Zm61.914 0h-10.32v-10.33h10.32v10.33Zm247.655 0h10.317v-10.33h-10.317v10.33Zm154.782 0h10.32v-10.33h-10.32v10.33Zm858.534-72.3h-10.32v20.66h-30.96v10.33h-10.32v10.33h-20.63v20.65h-10.32v-20.65h-10.32v20.65H1715v10.33h-10.32v-10.33H1715v-10.33h20.64v-10.32h10.32v-10.33h10.32v10.33h10.32v-10.33h20.63v-10.33h10.32v-10.33h20.64v-10.33h10.32v-10.327h10.32v10.327Zm-51.6 72.3h-10.31v-10.33h10.31v10.33Zm113.51-10.33h-10.32v10.33h-10.31v-10.33h10.31v-20.65h10.32v20.65Zm92.87 10.33h-10.32v-10.33h10.32v10.33Zm-1281.606-41.31h10.32v10.33h-10.32v10.32h-10.318v10.33h-10.321v-20.65h-10.318v-10.33h10.318v10.33h10.321v-20.66h10.318v10.33Zm-257.972 30.98h-20.64v-10.33h20.64v10.33Zm103.188 0h-10.318v-10.33h10.318v10.33Zm72.234-10.33v10.33h-20.638v-10.33h20.638Zm103.188 0h-10.318v10.33h-10.32v-10.33h10.32v-10.32h10.318v10.32Zm41.275 10.33h10.32v-10.33h-10.32v10.33Zm1054.593 0h-10.32v-10.33h10.32v10.33Zm144.47 0h-10.32v-10.33h10.32v10.33Zm61.91 0h-10.32v-10.33h10.32v10.33Zm-92.87-20.65v10.32h-10.32v-10.32h10.32Zm-1333.204 0v10.32h-10.319v-10.32h10.319Zm-72.234 0v10.32h-10.318v-10.32h10.318Zm257.972 10.32h10.32v-10.32h-10.32v10.32Zm165.105 0h10.319v-10.32h-10.319v10.32Zm92.871 0h-10.32v-10.32h10.32v10.32Zm1023.64 0h-10.32v-10.32h10.32v10.32Zm-144.47-61.967h10.32v10.327h10.32v-10.327h10.32v10.327h-10.32v20.66h10.32v-10.33h10.32v10.33h-10.32v10.33h10.32v-10.33h10.31v10.33h-10.31v10.33h-10.32v-10.33h-10.32v-10.33h-10.32v10.33h-10.32v10.33h-20.64v-10.33h-10.32v-10.33h20.64v-10.33h10.32v-10.33h-10.32v-20.655h10.32v10.328ZM598.497 1045.25h-10.318v-10.33h10.318v10.33Zm-72.233 0h-10.319v-10.33h10.319v10.33Zm-30.957 0h-10.318v-10.33h10.318v10.33Zm257.972 0h10.32v-10.33h-10.32v10.33Zm72.235 0h10.317v-10.33h-10.317v10.33Zm992.676 0h-10.32v-10.33h10.32v10.33Zm51.6-20.66v20.66h-10.32v-20.66h10.32Zm134.14 20.66h-10.32v-10.33h10.32v10.33Zm113.51 0h-20.64v-10.33h20.64v10.33Zm-1364.161-20.66h-10.318v10.33h10.318v-10.33h10.32v-10.33h-10.32v10.33Zm-299.247 10.33h-10.32v-10.33h10.32v10.33Zm92.87 0h-10.32v-10.33h10.32v10.33Zm20.637 0H557.22v-10.33h10.319v10.33Zm206.378 0h10.32v-10.33h-10.32v10.33Zm206.379 0h10.32v-10.33h-10.32v10.33Zm951.404-10.33h-10.32v10.33h10.32v-10.33h10.32v-10.33h-10.32v10.33Zm103.19 0h-10.32v10.33h-10.32v-20.66h20.64v10.33Zm51.59 10.33h-10.31v-10.33h10.31v10.33Zm113.5 0h-10.3v-10.33h10.3v10.33Zm-340.51-20.66v10.33h-10.32v-10.33h10.32Zm-1240.336 0h-10.318v10.33h-10.319v-10.33h10.319v-10.33h10.318v10.33Zm103.19 10.33h-10.32v-10.33h10.32v10.33Zm1188.736-41.315v20.655h10.32v10.33h-20.64v-30.985h10.32Zm-61.91 20.655v10.33h-10.32v-10.33h10.32Zm-1106.189 10.33h10.318v-10.33h-10.318v10.33Zm-103.189-20.657v10.327h10.32v10.33h-20.638v-20.657h10.318Zm-51.593 20.657h-10.32v-10.33h10.32v10.33Zm196.058 0h10.317v-10.33h-10.317v10.33Zm144.464 0h10.318v-10.33h-10.318v10.33Zm41.277 0h10.318v-10.33h-10.318v10.33Zm20.638 0h10.314v-10.33h-10.314v10.33Zm899.804-10.33h-10.31v10.33h-10.32v-10.33h10.32v-10.327h10.31v10.327Zm103.19 0v10.33h-10.32v-10.33h10.32Zm-10.32 0h-10.31v-10.327h10.31v10.327ZM691.365 983.275h-10.318v10.328h-10.32v10.327h-10.318v-10.327h10.318v-10.328h10.32v-10.329h10.318v10.329Zm-123.826 20.655H557.22v-10.327h10.319v10.327Zm196.06 0h10.318v-10.327h-10.318v10.327Zm61.915 0h10.317v-10.327h-10.317v10.327Zm1209.376 0h-10.32v-10.327h10.32v10.327ZM629.454 993.603h-10.32v-10.328h10.32v10.328Zm-82.552 0h-10.32v-10.328h10.32v10.328Zm206.377-10.328h-10.318v10.328h10.318v-10.328h10.32v-10.329h-10.32v10.329Zm92.872 10.328h10.318v-10.328h-10.318v10.328Zm134.145 0h10.32v-10.328h-10.32v10.328Zm1023.634-10.328v10.328h-10.32v-10.328h10.32Zm51.6 10.328h-10.32v-10.328h10.32v10.328Zm20.64 0h-10.32v-10.328h10.32v10.328Zm51.59 0h-10.32v-10.328h10.32v10.328Zm30.96 0h-10.33v-10.328h10.33v10.328ZM526.264 972.946v10.329h-10.319v-10.329h10.319Zm61.915 10.329h-10.32v-10.329h10.32v10.329Zm72.23 0h-20.637v-10.329h10.32v-10.328h10.317v20.657Zm113.508 0h10.32v-10.329h-10.32v10.329Zm103.189 0h10.32v-10.329h-10.32v10.329Zm61.913 0h10.322v-10.329h-10.322v10.329Zm20.64 0h10.319v-10.329h-10.319v10.329Zm41.271 0h10.32v-10.329h-10.32v10.329Zm1095.87 0h-10.32v-10.329h10.32v10.329Zm103.18 0h-10.3v-10.329h10.3v10.329ZM515.945 972.946h-10.318v-10.328h10.318v10.328Zm-51.593 0h-10.32v-10.328h10.32v10.328Zm330.202 0h10.32v-10.328h-10.32v10.328Zm185.742 0h10.32v-10.328h-10.32v10.328Zm72.234 0h-10.32v-10.328h10.32v10.328Zm982.36 0h-10.32v-20.657h10.32v20.657Zm30.96 0h-20.64v-10.328h20.64v10.328Zm72.24 0h-20.65v-10.328h20.65v10.328ZM969.978 962.618h10.318v-10.329h-10.318v10.329Zm-185.741 0h10.317v-10.329h-10.317v10.329Zm-154.783 0h-10.32v-10.329h10.32v10.329Zm113.507-10.329h10.318v10.329h-20.637v-20.657h10.319v10.328ZM1931.7 962.618h10.32v-10.329h-10.32v10.329Zm82.55-10.329v10.329h-10.32v-10.329h10.32Zm72.23 0v10.329h-10.31v-10.329h10.31Zm92.87 10.329h-10.33v-10.329h10.33v10.329Zm-103.18-30.986v20.657h-20.64v-10.328h10.32v-10.329h10.32Zm-154.79 20.657h10.32v-10.328h-10.32v10.328Zm-961.721 0h10.319v-10.328h-10.319v10.328Zm-134.145 0h10.317v-10.328h-10.317v10.328Zm20.637 0h10.318v-10.328h-10.318v10.328Zm1106.189 0h20.64v-10.328h-20.64v10.328Zm41.27-20.657h-10.32v-10.328h-10.31v10.328h10.31v20.657h10.32v-20.657h10.32v-20.657h-10.32v20.657ZM660.409 941.961h-10.317v-10.329h10.317v10.329Zm20.638 0h-10.32v-10.329h10.32v10.329Zm113.507 0h10.32v-10.329h-10.32v10.329Zm113.51 0h10.317v-10.329h-10.317v10.329Zm30.955 0h10.322v-10.329h-10.322v10.329Zm103.191 0h-10.32v-10.329h10.32v10.329Zm1003-10.329v10.329h-10.32v-10.329h10.32Zm61.9 10.329h-20.63v-10.329h20.63v10.329Zm72.24 0h-10.33v-10.329h10.33v10.329ZM629.454 931.632h-10.32v-10.328h10.32v10.328Zm144.463 0h10.32v-10.328h-10.32v10.328Zm41.275 0h10.322v-10.328h-10.322v10.328Zm154.786 0h10.318v-10.328h-10.318v10.328Zm961.722 0h10.32v-10.328h-10.32v10.328Zm20.64 0h10.32v-10.328h-10.32v10.328Zm175.42 0h-10.32v-10.328h10.32v10.328Zm20.63 0h-10.3v-10.328h10.3v10.328Zm72.24 0h-10.32v-10.328h10.32v10.328ZM660.409 921.304h-10.317v-10.329h10.317v10.329Zm41.277 0h-20.639v-10.329h20.639v10.329Zm92.868 0h10.32v-10.329h-10.32v10.329Zm134.147 0h10.318v-10.329h-10.318v10.329Zm1260.979-10.329v10.329h-10.33v-10.329h10.33Zm-10.33 0h-10.33v-10.328h10.33v10.328Zm-196.06 0h10.32v-10.328h-10.32v10.328Zm-1426.07 0h-10.318v-10.328h10.318v10.328Zm72.234 0h-10.32v-10.328h10.32v10.328Zm227.015 0h10.32v-10.328h-10.32v10.328Zm92.872 0h10.318v-10.328h-10.318v10.328Zm72.229-10.328v10.328h-10.32v-10.328h10.32Zm899.81 10.328h10.32v-10.328h-10.32v10.328Zm20.64 0h10.32v-10.328h-10.32v10.328Zm206.37-10.328v10.328h-10.3v-10.328h10.3Zm61.92 10.328h-10.33v-10.328h10.33v10.328ZM536.582 900.647h-10.318v-10.329h10.318v10.329Zm51.597 0h-10.32v-10.329h10.32v10.329Zm61.913-10.329h10.317V879.99h10.318v10.328h-10.318v10.329h-10.317v-10.329h-10.32V879.99h10.32v10.328Zm41.273 10.329h-10.318v-10.329h10.318v10.329Zm113.509 0h10.318v-10.329h-10.318v10.329Zm1157.786 0h10.32v-10.329h-10.32v10.329Zm41.27 0h20.64v-10.329h-20.64v10.329Zm103.18-30.986h-10.31v10.329h-10.32v20.657h-10.31V879.99h10.31v-10.329h10.32v-20.657h10.31v20.657ZM794.554 890.318h10.32V879.99h-10.32v10.328Zm82.552 0h10.32V879.99h-10.32v10.328Zm51.595 0h10.318V879.99h-10.318v10.328Zm992.679 0h10.32V879.99h-10.32v10.328Zm20.64 0h10.32V879.99h-10.32v10.328Zm165.09-10.328v10.328h-10.31V879.99h10.31Zm20.65-30.986v10.329h10.33v-10.329h10.3v10.329h-10.3v10.328h-10.33v10.329h-20.65v-10.329h20.65v-10.328h-10.32v-10.329h10.32Zm-1106.19 0v10.329h-10.32v20.657h-10.32v-10.329h-10.314v-10.328h20.634v-10.329h10.32ZM619.134 879.99h-10.318v-10.329h10.318v10.329Zm72.231 0h-10.318v-10.329h10.318v10.329Zm20.639 0h-10.318v-10.329h10.318v10.329Zm30.957-20.657v10.328h-10.319v10.329h-10.318v-20.657h20.637Zm72.231 20.657h10.322v-10.329h-10.322v10.329Zm20.639 0h10.32v-10.329h-10.32v10.329Zm113.51 0h10.318v-10.329h-10.318v10.329Zm1023.639 0h10.31v-10.329h-10.31v10.329Zm41.27 0h10.32v-10.329h-10.32v10.329Zm165.1 0h-10.33v-10.329h10.33v10.329Zm72.24-20.657h-10.33v10.328h-20.63v10.329h-10.32v-10.329h10.32v-10.328h20.63v-10.329h10.33v10.329Zm-288.93 10.328h10.32v-10.328h-10.32v10.328ZM794.554 859.333v10.328h-10.317v-10.328h10.317Zm61.915 10.328h10.32v-10.328h-10.32v10.328Zm41.275 0h10.32v-10.328h-10.32v10.328Zm1013.316 0h10.32v-10.328h-10.32v10.328Zm20.64 0h10.32v-10.328h-10.32v10.328Zm61.91 0h10.32v-10.328h-10.32v10.328Zm41.28 0h10.32v-10.328h-10.32v10.328ZM794.554 849.004h-10.317v10.329h-10.32v-10.329h10.32v-22.723h10.317v22.723Zm-30.955 0v10.329h-10.32v-10.329h10.32Zm-41.275 10.329h-10.32v-10.329h10.32v10.329Zm-144.465 0h-10.32v-10.329h10.32v10.329Zm247.655-10.329h-10.322v10.329h10.322v-10.329h10.317v-10.328h-10.317v10.328Zm134.145 10.329h10.319v-10.329h-10.319v10.329Zm1209.361 0h-10.3v-10.329h10.3v10.329Zm41.29-10.329h-10.33v10.329h-20.63v-10.329h20.63v-10.328h10.33v10.328Zm92.87 10.329h-10.33v-10.329h10.33v10.329ZM877.106 849.004h10.32v-10.328h-10.32v10.328Zm41.275 0h10.32v-10.328h-10.32v10.328Zm20.638 0h10.322v-10.328h-10.322v10.328Zm982.361-10.328h-10.32v10.328h10.32v-10.328h10.32v-12.395h-10.32v12.395Zm20.64 10.328h10.32v-10.328h-10.32v10.328Zm61.91 0h10.32v-10.328h-10.32v10.328ZM825.514 826.281h-10.322v12.395h10.322v-12.395h10.317v-10.328h-10.317v10.328Zm-165.105 12.395h-10.317v-12.395h10.317v12.395Zm185.742 0h10.318v-12.395h-10.318v12.395Zm1116.509 0h10.32v-12.395h-10.32v12.395Zm20.63 0h10.32v-12.395h-10.32v12.395Zm196.06-12.395v12.395h-10.33v-12.395h10.33Zm134.16 12.395h-10.33v-12.395h10.33v12.395ZM681.047 826.281h-10.32v-10.328h10.32v10.328Zm20.639 0h-10.321v-10.328h10.321v10.328Zm206.378-10.328h-10.32v10.328h10.32v-10.328h10.317v-10.329h-10.317v10.329Zm30.955 10.328h10.322v-10.328h-10.322v10.328Zm30.959-10.328h-10.319v10.328h10.319v-10.328h10.318v10.328h10.32v-10.328h-10.32v-10.329h-10.318v10.329Zm1095.872 10.328h10.32v-10.328h-10.32v10.328Zm154.78-10.328v10.328h-10.32v-10.328h10.32Zm20.63 10.328h-10.32v-10.328h10.32v10.328Zm41.29 0h-10.33v-10.328h10.33v10.328Zm-72.24-10.328h-10.33v-10.329h10.33v10.329ZM825.514 805.624h-10.322v10.329h10.322v-10.329h10.317v-10.328h-10.317v10.328Zm-165.105 10.329h-10.317v-10.329h10.317v10.329Zm113.508-10.329h-10.318v10.329h-10.32v-10.329h10.32v-10.328h10.318v10.328Zm92.872 10.329h10.317v-10.329h-10.317v10.329Zm1064.911 0h10.32v-10.329h-10.32v10.329Zm381.81 0h-10.33v-10.329h10.33v10.329ZM846.151 805.624h10.318v-20.657h-10.318v20.657Zm92.868-10.328h-10.318v10.328h10.318v-10.328h10.322v-10.329h-10.322v10.329Zm1147.461 10.328h10.32v-10.328h-10.32v10.328Zm185.74-20.657v10.329h-10.32v10.328h-10.31v-10.328h10.31v-10.329h10.32Zm61.92 20.657h-10.33v-10.328h10.33v10.328ZM815.192 795.296h10.322v-10.329h10.317v-10.328h-20.639v20.657Zm-206.376 0h-10.319v-10.329h10.319v10.329Zm103.188 0h-10.318v-10.329h10.318v10.329Zm41.275-10.329h-10.318v10.329h-10.319v-10.329h10.319v-10.328h10.318v10.328Zm41.275-10.328v20.657h-10.317v-20.657h10.317Zm82.552 20.657h10.32v-10.329h-10.32v10.329Zm82.553 0h10.319v-10.329h-10.319v10.329Zm982.361 0h10.32v-10.329h-10.32v10.329Zm61.91 0h10.32v-10.329h-10.32v10.329Zm237.33 0h-10.32v-10.329h10.32v10.329Zm82.55-20.657h-10.3v10.328h-10.33v10.329h-10.33v-10.329h10.33v-10.328h10.33V764.31h10.3v10.329Zm-61.91 10.328h-10.31v-10.328h10.31v10.328Zm-1591.173 0h-10.318v-10.328h10.318v10.328Zm227.017 0h10.32v-10.328h-10.32v10.328Zm1023.636 0h10.32v-10.328h-10.32v10.328Zm41.28 0h10.32v-10.328h-10.32v10.328Zm61.91 0h10.32v-10.328h-10.32v10.328Zm185.74-30.985v20.657h-10.33v-20.657h10.33ZM784.237 774.639h-20.638V764.31h20.638v10.329Zm61.914 0h10.318V764.31h-10.318v10.329Zm30.955-10.329h-10.317v10.329h10.317V764.31h10.32v-10.328h-10.32v10.328Zm51.595 10.329h10.318V764.31h-10.318v10.329Zm1209.389 0h10.3V764.31h-10.3v10.329Zm103.17-10.329v10.329h-10.32V764.31h10.32Zm41.29 10.329h-10.33V764.31h10.33v10.329Zm82.54 0h-10.32V764.31h10.32v10.329Zm-123.83-30.986v10.329h-10.32v10.328h-10.31v-10.328h10.31v-10.329h10.32Zm-319.88 20.657h10.32v-10.328h-10.32v10.328Zm165.1 0h10.32v-10.328h-10.32v10.328Zm196.07-20.657h-20.65v20.657h-10.31v-20.657h10.31v-10.328h20.65v10.328ZM773.917 753.982h-10.318v-20.657h10.318v20.657Zm30.957 0h-10.32v-10.329h10.32v10.329Zm103.19 0h10.317v-10.329h-10.317v10.329Zm144.466-10.329v10.329h-10.32v-10.329h10.32Zm1064.91 10.329h10.32v-10.329h-10.32v10.329Zm20.65 0h10.3v-10.329h-10.3v10.329Zm175.42-10.329h-10.33v10.329h-10.33v-10.329h10.33v-10.328h10.33v10.328Zm30.95-10.328v10.328h-10.32v10.329h-10.33v-10.329h10.33v-10.328h10.32Zm-1622.136 0h-10.32v10.328h-10.318v-10.328h10.318v-10.329h10.32v10.329Zm123.827 10.328h-10.32v-10.328h10.32v10.328Zm41.275-10.328h-10.32v10.328h10.32v-10.328h10.318v-10.329h-10.318v10.329Zm1013.314 0h-10.32v10.328h10.32v-10.328h10.32v-10.329h-10.32v10.329Zm20.64 10.328h10.32v-10.328h-10.32v10.328Zm41.28 0h10.32v-10.328h-10.32v10.328Zm196.06 0h10.3v-10.328h-10.3v10.328Zm227.01 0h-10.31v-10.328h10.31v10.328Zm-51.59-10.328h-10.33v-10.329h10.33v10.329Zm-1663.413 0h-10.318v-10.329h10.318v10.329Zm1467.363 0h10.3v-10.329h-10.3v10.329ZM908.064 722.996h10.317v-10.328h-10.317v10.328Zm51.595 0h10.319v-10.328h-10.319v10.328Zm1199.061 0h10.3v-10.328h-10.3v10.328Zm20.63 0h10.33v-10.328h-10.33v10.328Zm82.55-10.328v10.328h-10.31v-10.328h10.31Zm51.61 0v10.328h-10.33v-10.328h10.33Zm-10.33-10.329v10.329h-10.33v-10.329h10.33ZM763.599 712.668h-10.32v-10.329h10.32v10.329Zm165.102 0h10.318v-10.329h-10.318v10.329Zm82.549 0h10.32v-41.314h-10.32v41.314Zm879.17 0h10.32v-10.329h-10.32v10.329Zm41.28 0h10.32v-10.329h-10.32v10.329Zm361.15-10.329h-10.3v10.329h-10.33v-10.329h10.33v-10.328h10.3v10.328Zm123.83 10.329h-10.3v-10.329h10.3v10.329ZM794.554 702.339h-10.317v-10.328h10.317v10.328Zm103.19 0h10.32v-10.328h-10.32v10.328Zm82.552 0h10.32v-10.328h-10.32v10.328Zm1147.464 0h10.33v-10.328h-10.33v10.328Zm30.96 0h10.3v-10.328h-10.3v10.328Zm20.63 0h10.33v-10.328h-10.33v10.328Zm61.91 0h-10.32v-10.328h10.32v10.328Zm92.88-10.328h-10.33v10.328h-10.3v-10.328h10.3v-10.329h10.33v10.329Zm51.59 0h-10.31v10.328h-10.33v-10.328h10.33v-10.329h10.31v10.329Zm51.6 0v10.328h-10.32v-10.328h10.32Zm-10.32-10.329v10.329h-10.33v-10.329h10.33Zm-1684.049 0h-10.319v10.329h-10.318v-10.329h10.318v-10.328h10.319v10.328Zm216.698 10.329h10.319v-10.329h-10.319v10.329Zm113.511-30.986v10.329h10.32v-10.329h10.31v10.329h-10.31v10.328h-10.32v10.329h-10.32v-10.329h10.32v-10.328h-10.32v-10.329h10.32Zm827.57 30.986h10.32v-10.329h-10.32v10.329Zm123.83 0h10.32v-10.329h-10.32v10.329Zm175.41 0h10.33v-10.329h-10.33v10.329Zm61.92-41.314h10.32v10.328h10.33v-10.328h10.3v-10.329h10.33v10.329h-10.33v10.328h-10.3v10.329h-10.33v-10.329h-20.63v10.329h10.31v10.328h-10.31v10.329h-10.33v-10.329h-10.32v-10.328h10.32v-10.329h10.33v-20.657h10.31v10.329Zm206.37 41.314h-20.63v-10.329h20.63v10.329Zm268.31 0h-10.32v-10.329h10.32v10.329Zm-319.9-20.657v10.328h-10.3v-10.328h10.3Zm-227 10.328h10.3v-10.328h-10.3v10.328ZM897.744 671.354h-10.318v10.328h10.318v-10.328h10.32v-10.329h-10.32v10.329Zm20.637 10.328h10.32v-10.328h-10.32v10.328Zm72.235 0h10.314v-10.328h-10.314v10.328Zm848.214 0h-10.32v-10.328h10.32v10.328Zm41.28 0h10.31v-10.328h-10.31v10.328Zm412.74-10.328v10.328h-10.3v-10.328h10.3Zm72.24 0h-10.32v10.328h-10.31v-10.328h10.31v-10.329h10.32v10.329Zm350.84 10.328h-10.31v-10.328h10.31v10.328Zm-309.55-10.328h-10.33v-10.329h10.33v10.329Zm-1426.084 0h10.32v-10.329h-10.32v10.329Zm-123.827 0h-10.318v-10.329h10.318v10.329Zm-41.277 0h-10.318v-10.329h10.318v10.329Zm20.639 0h-10.317v-10.329h10.317v10.329Zm103.188 0h10.322v-10.329h-10.322v10.329Zm972.041 0h10.32v-10.329h-10.32v10.329Zm257.96-10.329h-10.3v10.329h10.3v-10.329h10.33v-10.328h-10.33v10.328Zm144.49-10.328v10.328h10.3v-10.328h10.33v10.328h-10.33v10.329h-10.3v-10.329h-10.33v-10.328h10.33ZM887.426 661.025h10.318v-10.328h-10.318v10.328Zm-123.827 0h-10.32v-10.328h10.32v10.328Zm154.782 0h10.32v-10.328h-10.32v10.328Zm82.549 0h10.32v-10.328h-10.32v10.328Zm20.64 0h10.32v-10.328h-10.32v10.328Zm848.22-10.328h-10.32v10.328h10.32v-10.328h10.32v-10.329h-10.32v10.329Zm61.91 10.328h10.32v-10.328h-10.32v10.328Zm402.44-30.985v10.328h-10.33v10.329h-10.3v-10.329h10.3V630.04h10.33ZM928.701 588.725h-10.32v20.657h-10.317v10.329h-10.32v20.657h10.32v10.329h10.317v-10.329h10.32v-20.657h-10.32v-10.329h10.32v-20.657h10.318v10.329h10.322v-10.329h-10.322v-10.328h-10.318v10.328Zm-103.187 61.972h-10.322v-10.329h10.322v10.329Zm20.637 0h-10.32v-10.329h10.32v10.329Zm134.145 0h10.32v-10.329h-10.32v10.329Zm103.194-10.329h10.31v10.329h-20.63V630.04h10.32v10.328Zm806.93 10.329h10.32v-10.329h-10.32v10.329Zm185.75 0h10.31v-10.329h-10.31v10.329Zm144.46 0h10.31v-10.329h-10.31v10.329Zm61.92-51.643h10.3v10.328h-10.3v10.329h-10.33v20.657h10.33v-20.657h10.3v-10.329h10.33v10.329h-10.33v20.657h-10.3v10.329h-10.33v-10.329h-10.32v-20.657h10.32v-30.986h10.33v10.329Zm72.22 51.643h-10.31v-10.329h10.31v10.329Zm30.96-10.329v10.329h-10.31v-10.329h10.31Zm30.95 10.329h-10.3v-10.329h10.3v10.329Zm51.59-10.329h-20.63v10.329h-10.31v-10.329h10.31V630.04h20.63v10.328Zm61.92 10.329h-10.31v-10.329h10.31v10.329Zm72.24 0h-10.33v-10.329h10.33v10.329Zm227 0h-10.3v-10.329h10.3v10.329Zm-454.01-20.657v10.328h-10.33V630.04h10.33ZM918.381 640.368h-10.317v-20.657h10.317v20.657Zm30.96 0h10.318V630.04h-10.318v10.328Zm72.229 0h20.64V630.04h-20.64v10.328Zm103.19 0h-10.32V630.04h10.32v10.328Zm1033.96 0h10.3V630.04h-10.3v10.328Zm41.26 0h10.33V630.04h-10.33v10.328Zm175.44-51.643v10.329h30.96v-10.329h10.3v10.329h-10.3v10.328h-30.96v10.329h-10.33v10.329h-10.32v-10.329h10.32v-10.329h-10.32v-10.328h10.32v-10.329h10.33Zm-30.96 20.657v10.329h-20.65v10.329h-20.63v-10.329h20.63v-10.329h20.65ZM990.616 630.04h10.314v-10.329h-10.314v10.329Zm868.854 0h10.32v-10.329h-10.32v10.329Zm237.33 0h10.31v-10.329h-10.31v10.329Zm41.29 0h10.3v-10.329h-10.3v10.329Zm61.89-20.658h-10.3v10.329h-10.33v10.329h10.33v-10.329h10.3v-10.329h10.33v-10.328h-10.33v10.328Zm20.65 20.658h20.63v-10.329h-20.63v10.329Zm185.75 0h-10.33v-10.329h10.33v10.329Zm237.33 0h-10.33v-10.329h10.33v10.329Zm92.87 0h-10.32v-10.329h10.32v10.329ZM660.409 619.711h-10.317v-10.329h10.317v10.329Zm196.06 0h-10.318v-10.329h10.318v10.329Zm175.421 0h10.32v-10.329h-10.32v10.329Zm92.87-10.329v10.329h-10.32v-10.329h10.32Zm765.66 10.329h10.32v-10.329h-10.32v10.329Zm536.59 0h-10.33v-10.329h10.33v10.329Zm-144.46-51.643h10.3v10.329h10.33v10.328h10.33v10.329h10.3v-10.329h10.33v10.329h-10.33v10.328h-20.63v-10.328h-10.33v-10.329h-10.3v-10.328h-20.65v-10.329h10.32V557.74h10.33v10.328ZM959.659 609.382h10.319v-10.328h-10.319v10.328Zm51.591 0h10.32v-10.328h-10.32v10.328Zm134.15 0h-10.32v-10.328h10.32v10.328Zm693.43-10.328h-10.32v10.328h10.32v-10.328h10.32v-10.329h-10.32v10.329Zm30.96 0h-10.32v10.328h10.32v-10.328h10.32v-10.329h-10.32v10.329Zm61.91 10.328h10.32v-10.328h-10.32v10.328Zm103.19 0h10.32v-10.328h-10.32v10.328Zm134.13 0h10.33v-10.328h-10.33v10.328Zm61.92-10.328h-10.31v10.328h10.31v-10.328h10.32v10.328h10.33v-10.328h-10.33v-10.329h-10.32v10.329Zm134.15 10.328h10.33v-10.328h-10.33v10.328Zm103.18-10.328h-20.63v10.328h-10.31v-10.328h10.31v-10.329h20.63v10.329Zm-1611.801 0h-10.318v-10.329h10.318v10.329Zm454.031 0h-10.32v-10.329h10.32v10.329Zm652.16 0h10.32v-10.329h-10.32v10.329Zm185.73 0h10.33v-10.329h-10.33v10.329Zm278.62-41.314h-10.33v20.657h-10.3v10.328h-10.33v-10.328h10.33V557.74h10.3v-10.329h10.33v10.329Zm-61.92 30.985h-10.32v-10.328h10.32v10.328Zm-30.95-92.956v20.657h10.32v-10.329h10.31v10.329h-10.31v10.328h-10.32v10.329h10.32v10.328h-20.65v20.657h10.33V557.74h10.32v20.657h-20.65v10.328h-10.3v-10.328h10.3v-10.329h-10.3V557.74h-10.33v-10.329h20.63v-10.328h-10.3v-10.329h20.63v-10.328h-20.63v-10.329h10.3v-10.328h10.33Zm-526.27 41.314v10.328h-10.32v10.329h10.32v10.328h-10.32v10.329h10.32v-10.329h10.32v10.329h10.32v10.328h-30.96v-10.328h-10.32v10.328h-10.31v-10.328h10.31v-41.314h20.64Zm-920.444 51.642h-10.32v-10.328h10.32v10.328Zm103.19 0h10.314v-10.328h-10.314v10.328Zm30.954 0h10.32v-10.328h-10.32v10.328Zm113.51 0h-10.32v-10.328h10.32v10.328Zm51.59 0h-10.32v-10.328h10.32v10.328Zm518.01 0h-10.32v-10.328h10.32v10.328Zm278.61 0h10.32v-10.328h-10.32v10.328Zm113.51 0h10.31v-10.328h-10.31v10.328Zm92.88 0h10.3v-10.328h-10.3v10.328Zm330.2 0h-10.33v-10.328h10.33v10.328ZM959.659 578.397h10.319v-10.329h-10.319v10.329Zm889.491 0h10.32v-10.329h-10.32v10.329Zm268.29 0h10.32v-10.329h-10.32v10.329Zm30.95 0h10.33v-10.329h-10.33v10.329Zm20.63 0h10.33v-10.329h-10.33v10.329Zm144.49-10.329v10.329h-10.33v-10.329h10.33Zm72.22 10.329h-10.31v-10.329h10.31v10.329Zm103.19 0h-20.65v-10.329h20.65v10.329Zm113.51 0h-10.33v-10.329h10.33v10.329Zm113.5 0h-10.31v-10.329h10.31v10.329Zm134.16 0h-10.33v-10.329h10.33v10.329Zm-546.91-20.657v10.328h-10.33V557.74h10.33ZM897.744 568.068h-10.318V557.74h10.318v10.328Zm41.275 0h10.322V557.74h-10.322v10.328Zm216.701 0h-10.32V557.74h10.32v10.328Zm714.07 0h10.32V557.74h-10.32v10.328Zm30.95 0h10.32V557.74h-10.32v10.328Zm30.96 0h10.32V557.74h-10.32v10.328Zm82.55 0h10.32V557.74h-10.32v10.328Zm41.28 0h10.32V557.74h-10.32v10.328Zm20.64 0h10.31V557.74h-10.31v10.328Zm113.51 0h10.3V557.74h-10.3v10.328Zm92.87-82.628v10.329h10.3v10.328h10.33v-10.328h10.33v10.328h-10.33v10.329h-10.33v-10.329h-10.3v10.329h-10.33v10.328h10.33v10.329h10.3v-10.329h10.33v-10.328h10.33v10.328h-10.33v20.657h-10.33v10.329h-10.3v-20.657h-10.33v20.657h-10.32v10.328h-10.31V557.74h-10.33v-10.329h10.33v-10.328h10.31v-20.657h10.32v-20.657h-10.32V485.44h20.65Zm103.18 51.643h-10.31v20.657h-10.33v10.328h-10.32V557.74h10.32v-10.329h-10.32v-10.328h20.65v-20.657h10.31v20.657Zm72.24 10.328v10.329h-10.33v10.328h-10.31V557.74h10.31v-10.329h10.33ZM918.381 557.74h-10.317v-20.657h10.317v20.657Zm41.278 0h10.319v-10.329h-10.319v10.329Zm92.871 0h10.32v-10.329h-10.32v10.329Zm20.64 0h10.32v-10.329h-10.32v10.329Zm672.79 0h-10.32v-10.329h10.32v10.329Zm72.23 0h-10.32v-10.329h10.32v10.329Zm20.64 0h10.32v-10.329h-10.32v10.329Zm299.26 0h10.3v-10.329h-10.3v10.329Zm51.59-20.657h-10.33v10.328h-10.33v10.329h10.33v-10.329h10.33v-10.328h10.3v10.328h10.33v-10.328h-10.33v-10.329h-10.3v10.329Zm20.63 20.657h10.32v-10.329h-10.32v10.329Zm309.57 0h-20.65v-10.329h20.65v10.329Zm175.42 0h-10.33v-10.329h10.33v10.329Zm-237.33-30.986v10.329h-10.33v10.328h-10.31v-10.328h10.31v-10.329h10.33Zm-1457.04 20.657h10.32v-10.328h-10.32v10.328Zm154.79-10.328v10.328h-10.32v-10.328h10.32Zm30.95 10.328h-10.32v-10.328h10.32v10.328Zm20.64 0h-10.32v-10.328h10.32v10.328Zm765.67 0h10.31v-10.328h-10.31v10.328Zm61.91 0h10.32v-10.328h-10.32v10.328Zm41.28 0h10.31v-10.328h-10.31v10.328Zm20.63 0h10.31v-10.328h-10.31v10.328Zm51.59-30.985h-10.3v10.328h-10.33v10.329h-10.32v10.328h10.32v-10.328h10.33v-10.329h10.3v-10.328h10.33v-10.329h-10.33v10.329Zm257.99 30.985h-10.33v-20.657h10.33v20.657Zm82.54-10.328h-10.32v10.328h-10.33v-10.328h10.33v-10.329h10.32v10.329Zm61.92 10.328h-10.33v-10.328h10.33v10.328ZM980.296 537.083h10.32v-10.329h-10.32v10.329Zm103.194 0h10.31v-10.329h-10.31v10.329Zm20.63 0h10.32v-10.329h-10.32v10.329Zm20.64 0h10.32v-10.329h-10.32v10.329Zm714.07 0h10.32v-10.329h-10.32v10.329Zm61.91 0h10.32v-10.329h-10.32v10.329Zm92.87 0h10.32v-10.329h-10.32v10.329Zm61.92 0h10.32v-10.329h-10.32v10.329Zm464.35 0h-10.33v-10.329h10.33v10.329Zm51.59 0h-10.33v-10.329h10.33v10.329Zm-123.83-10.329h-10.31v-10.328h10.31v10.328Zm-742.96-61.971v10.329H1715v-10.329h10.32v10.329h10.32v10.328h10.32v41.314H1715v-30.985h10.32V485.44h-20.64v-10.328h-30.95v-10.329h30.95Zm-683.11 61.971h10.32v-10.328h-10.32v10.328Zm206.38-10.328v10.328h-10.32v-10.328h10.32Zm538.65 10.328h-10.32v-20.657h10.32v20.657Zm51.59 0h10.32v-10.328h-10.32v10.328Zm41.28 0h10.32v-10.328h-10.32v10.328Zm82.55 0h10.32v-10.328h-10.32v10.328Zm92.87 0h10.32v-10.328h-10.32v10.328Zm61.91 0h10.31v-10.328h-10.31v10.328Zm196.05 0h-10.3v-10.328h10.3v10.328Zm72.24-10.328v10.328h-10.32v-10.328h10.32Zm175.42 10.328h-10.32v-10.328h10.32v10.328Zm61.92 0h-10.33v-10.328h10.33v10.328Zm-773.92-30.985h-10.32v10.328h-10.32v10.329h10.32v-10.329h10.32v-10.328h10.32V485.44h-10.32v10.329Zm-610.88 20.657h-10.32v-10.329h10.32v10.329Zm-237.334 0h10.32v-20.657h-10.32v20.657Zm72.234 0h10.32v-10.329h-10.32v10.329Zm61.91 0h10.32v-10.329h-10.32v10.329Zm41.28 0h10.32v-10.329h-10.32v10.329Zm548.96 0h-10.32v-20.657h10.32v20.657Zm20.64 0h10.32v-20.657h-10.32v20.657Zm196.06 0h10.32v-10.329h-10.32v10.329Zm41.28 0h10.32v-10.329h-10.32v10.329Zm51.59 0h10.32v-10.329h-10.32v10.329Zm41.28 0h10.32v-10.329h-10.32v10.329Zm20.64 0h10.31v-20.657h-10.31v20.657Zm41.27 0h10.32v-10.329h-10.32v10.329Zm299.24 0h-10.3v-10.329h10.3v10.329Zm61.92 0h-10.33v-10.329h10.33v10.329Zm30.95 0h-20.63v-10.329h20.63v10.329Zm-1405.43-10.329h10.32v-10.328h-10.32v10.328Zm-154.779 0h-10.322v-10.328h10.322v10.328Zm196.059-10.328h-10.32v10.328h10.32v-10.328h10.32V485.44h-10.32v10.329Zm103.19 10.328h-10.32v-10.328h10.32v10.328Zm610.88 0h10.32v-10.328h-10.32v10.328Zm134.14 0h10.32v-10.328h-10.32v10.328Zm41.28 0h10.32v-10.328h-10.32v10.328Zm165.09-30.985v20.657h-10.3v10.328h-10.33v-10.328h-10.33V485.44h10.33v-10.328h20.63Zm41.28-20.657v20.657h-10.32v20.657h10.32v10.328h-20.63v-10.328h-10.32V485.44h10.32v-10.328h-20.65v-10.329h20.65v10.329h10.31v-20.657h10.32Zm165.12 30.985h-10.33v10.329h-10.32v10.328h-20.64v-10.328h20.64V485.44h10.32v-10.328h10.33v10.328Zm41.26 20.657h-10.31v-10.328h10.31v10.328Zm113.5-10.328h-10.3v10.328h-10.33v-10.328h10.33V485.44h10.3v10.329Zm-237.33-20.657v20.657h-10.3v-20.657h10.3Zm-309.56 10.328h10.32v10.329h10.32V485.44h10.32v-10.328h-10.32v10.328h-10.32v-10.328h-10.32v10.328Zm-30.96 10.329h10.32V485.44h-10.32v10.329Zm-972.04-20.657h-10.32v20.657h10.32v-20.657h10.32v-10.329h-10.32v10.329Zm278.61-72.3h-10.32v10.329h10.32v20.657h-10.32v-10.329h-10.31v10.329h-10.32v-10.329h-10.32v-10.328h-10.32v10.328h10.32v10.329h-10.32v10.328h-10.32v-10.328h-10.32v-10.329h-10.32v10.329h10.32v10.328h10.32v20.657h-10.32v-10.328h-10.32v-10.329h-10.32v-10.328h-10.32v10.328h10.32v10.329h10.32v10.328h-10.32v20.657h-10.32v-30.985h-10.32v30.985h-10.31v10.329h10.31V485.44h10.32v10.329h10.32V485.44h20.64v-10.328h10.32v-10.329h10.32v-20.657h10.32v10.329h10.32v-10.329h10.32v-10.328h10.31v10.328h10.32v-10.328h10.32v-20.657h-10.32v-10.329h10.32v-10.328h-10.32v10.328Zm10.32 72.3v20.657h-10.32v-20.657h10.32Zm103.19 20.657h-10.32V485.44h10.32v10.329Zm229.08 0h-10.32V485.44h10.32v10.329Zm51.59 0h-10.31V485.44h10.31v10.329Zm113.51 0h10.32V485.44h-10.32v10.329Zm123.83 0h10.32V485.44h-10.32v10.329Zm30.96 0h10.32V485.44h-10.32v10.329Zm227.01 0h10.33V485.44h-10.33v10.329Zm82.55-10.329h-10.31v10.329h-10.33v-20.657h20.64v10.328Zm61.91-41.314h-10.3v30.986h-10.33v20.657h-10.33v-20.657h-20.63v-10.329h-20.63v-10.328h20.63v10.328h10.33v-10.328h10.3v20.657h10.33v-30.986h10.33v-10.328h10.3v10.328Zm30.96 20.657v10.329h-10.31v10.328h10.31v-10.328h10.32v10.328h-10.32v10.329h-10.31V485.44h-10.32v-10.328h10.32v-10.329h10.31Zm61.91 20.657v10.329h-10.3V485.44h10.3Zm72.24 10.329h-10.32V485.44h10.32v10.329Zm30.96 0h-10.33V485.44h10.33v10.329Zm-340.53-20.657h-10.33v10.328h-10.3v-10.328h-10.33v10.328h-10.3v-10.328h10.3v-10.329h30.96v10.329ZM1124.76 485.44h10.32v-10.328h-10.32v10.328Zm123.83-10.328v10.328h-10.32v-10.328h10.32Zm404.5 10.328h-10.32v-10.328h10.32v10.328Zm237.33 0h10.32v-10.328h-10.32v10.328Zm546.91 0h-10.32v-10.328h10.32v10.328Zm20.64 0h-10.33v-10.328h10.33v10.328Zm82.54 0h-10.32v-10.328h10.32v10.328Zm61.92 0h-10.33v-10.328h10.33v10.328Zm-1312.57-10.328h-10.32v-10.329h10.32v10.329Zm-257.97 0h10.32v-10.329h-10.32v10.329Zm123.83 0h10.32v-10.329h-10.32v10.329Zm61.91 0h-10.32v-10.329h10.32v10.329Zm113.51 0h-10.32v-10.329h10.32v10.329Zm229.08 0h-10.32v-10.329h10.32v10.329Zm196.06-10.329h-10.32v10.329h-10.32v-10.329h10.32v-10.328h10.32v10.328Zm30.95 10.329h10.32v-10.329h-10.32v10.329Zm61.92 0h10.32v-10.329h-10.32v10.329Zm72.23 0h10.32v-10.329h-10.32v10.329Zm30.96 0h10.32v-10.329h-10.32v10.329Zm30.95 0h20.64v-10.329h-20.64v10.329Zm103.19-10.329v10.329h-10.31v-10.329h10.31Zm299.25 0v10.329h-10.31v-10.329h10.31Zm113.5 0v10.329h-10.31v-10.329h10.31Zm72.24 10.329h-10.33v-10.329h10.33v10.329Zm82.55 0h-10.31v-10.329h10.31v10.329Zm-165.1-10.329h-10.32v-10.328h10.32v10.328Zm-82.54-30.985h-10.33v10.328h-10.32v10.329h-10.31v10.328h-10.33v-10.328h10.33v-10.329h-10.33v-10.328h30.96v-20.657h10.33v20.657Zm-61.92 20.657v10.328h-10.32v-10.328h10.32Zm-103.2-51.643h-10.32v10.329h-10.31v20.657h-10.32v10.328h-10.33v20.657h-20.63v-10.328h10.33v-10.329h10.3v-20.657h-10.3v-10.328h10.3v10.328h10.33v-10.328h10.32v-10.329h10.31v-20.657h10.32v20.657Zm-165.09 51.643v10.328h-10.32v-10.328h10.32Zm-103.19 10.328h10.31v-10.328h-10.31v10.328Zm-61.92 0h10.32v-10.328h-10.32v10.328Zm-134.14 0h10.31v-10.328h-10.31v10.328Zm-92.88-20.657v10.329h-10.31v10.328h-10.32v-10.328h10.32v-10.329h10.31Zm-672.79 10.329h-10.32v10.328h10.32v-10.328h10.32v-10.329h-10.32v10.329Zm309.57-20.657v20.657h-10.32v10.328h-10.32v-10.328h10.32v-20.657h10.32Zm41.28 30.985h-10.32v-10.328h10.32v10.328Zm30.95 0h-10.32v-10.328h10.32v10.328Zm43.34 0h-10.32v-10.328h10.32v10.328Zm82.55 0h-20.63v-10.328h20.63v10.328Zm92.87-30.985v10.328h-10.31v10.329h-10.32v10.328h-10.32v-10.328h10.32v-10.329h10.32v-10.328h10.31ZM1715 454.455v10.328h-10.32v-10.328H1715Zm92.87 10.328h10.32v-10.328h-10.32v10.328Zm608.81 0h-10.3v-10.328h10.3v10.328Zm30.96-10.328v10.328h-10.31v-10.328h10.31Zm92.87 10.328h-10.32v-10.328h10.32v10.328Zm72.24-10.328v10.328h-10.32v-10.328h10.32Zm0-10.329h-10.32v10.329h-10.33v-10.329h10.33v-10.328h10.32v10.328Zm-175.42 0v10.329h-10.32v-10.329h10.32Zm-103.19 0v10.329h-10.33v-10.329h10.33Zm-61.92-10.328v10.328h-20.63v10.329h-10.33v-10.329h10.33v-10.328h20.63Zm-20.63 0h-10.33v10.328h-10.32v10.329h-10.31v-10.329h10.31v-10.328h10.32v-10.329h10.33v10.329Zm-185.74 20.657h-10.32v-10.329h10.32v10.329Zm-361.17-10.329v10.329h-10.32v-10.329h10.32Zm-672.79 10.329h10.32v-10.329h-10.32v10.329Zm435.46 0h-10.32v-10.329h10.32v10.329Zm103.19 0h-10.32v-10.329h10.32v10.329Zm61.91 0h10.32v-10.329h-10.32v10.329Zm196.06 0h10.32v-10.329h-10.32v10.329Zm41.28 0h10.32v-10.329h-10.32v10.329Zm20.63 0h10.32v-10.329h-10.32v10.329Zm154.79 0h-10.32v-10.329h10.32v10.329Zm113.51-20.657h10.3v-10.329h10.33v10.329h-10.33v10.328h10.33v-10.328h10.33v10.328h-10.33v10.329h-10.33v-10.329h-10.3v10.329h-10.33v-10.329h10.33v-10.328h-10.33v-10.329h10.33v10.329Zm309.55 10.328v10.329h-10.3v-10.329h10.3Zm41.28 10.329h-10.32v-10.329h10.32v10.329Zm61.92 0h-20.63v-10.329h20.63v10.329Zm61.91 0h-10.32v-10.329h10.32v10.329Zm113.51 0h-10.31v-10.329h10.31v10.329Zm-278.62-20.657h-10.3v10.328h-10.33v-10.328h10.33v-10.329h10.3v10.329Zm-30.94 0h-10.32v10.328h-10.33v-10.328h10.33v-10.329h10.32v10.329Zm-742.97 10.328h-10.32v-10.328h10.32v10.328Zm-641.83 0h10.32v-10.328h-10.32v10.328Zm206.38 0h-10.32v-10.328h10.32v10.328Zm92.87-10.328v10.328h-10.32v-10.328h10.32Zm30.95 0v10.328h-10.31v-10.328h10.31Zm20.64 10.328h-10.32v-10.328h10.32v10.328Zm22.7 0h-12.38v-10.328h12.38v10.328Zm113.51 0h-10.32v-10.328h10.32v10.328Zm227.02 0h10.32v-10.328h-10.32v10.328Zm30.95 0h10.32v-10.328h-10.32v10.328Zm51.6 0h10.32v-10.328h-10.32v10.328Zm412.75-30.985h30.95v-10.329h30.96v10.329h-30.96v30.985h-10.3v-20.657h-20.65v-10.328h-10.31v-10.329h10.31v10.329Zm237.33 10.328v10.329h-10.31v10.328h-10.32v-10.328h10.32v-10.329h10.31Zm-340.51-30.985v10.328h30.96v10.329h-41.29v10.328h-10.3v10.329h-10.33v-10.329h-10.32v-10.328h10.32v10.328h10.33v-10.328h10.3v-20.657h10.33Zm-786.3 30.985v10.329h-10.32v-10.329h10.32Zm-371.49 10.329h-10.314v-10.329h10.314v10.329Zm30.96 0h10.32v-10.329h-10.32v10.329Zm414.82 0h-10.32v-10.329h10.32v10.329Zm72.23 0h-10.32v-10.329h10.32v10.329Zm41.28 0h-10.32v-10.329h10.32v10.329Zm319.89 0h10.31v-10.329h-10.31v10.329Zm474.66-10.329v10.329h-10.31v-10.329h10.31Zm185.74 0v10.329h-10.32v-10.329h10.32Zm-10.32 0h-10.31v-10.328h10.31v10.328Zm-41.27 0h-10.32v-10.328h10.32v10.328Zm-144.46 0h-10.32v-10.328h10.32v10.328Zm-340.53-30.985h-10.32v20.657h-10.32v10.328h-10.31v-10.328h10.31v-20.657h10.32v-10.329h10.32v10.329Zm-134.14 30.985h10.32v-10.328h-10.32v10.328Zm-817.26 0h10.32v-10.328h-10.32v10.328Zm20.64 0h10.32v-10.328h-10.32v10.328Zm330.2-10.328v10.328h-20.64v-10.328h20.64Zm63.98 10.328h-10.32v-10.328h10.32v10.328Zm30.96-10.328v10.328h-10.32v-10.328h10.32Zm41.27 10.328h-10.32v-10.328h10.32v10.328Zm51.6 0h10.32v-10.328h10.31v-10.329h-20.63v20.657Zm144.46 0h10.32v-10.328h-10.32v10.328Zm20.64 0h10.32v-10.328h-10.32v10.328Zm51.59 0h10.32v-10.328h-10.32v10.328Zm567.55 0h-10.33v-10.328h10.33v10.328Zm216.68 0h-10.3v-10.328h10.3v10.328Zm41.28 0h-10.32v-10.328h10.32v10.328Zm30.96 0h-10.32v-10.328h10.32v10.328Zm30.96 0h-10.33v-10.328h10.33v10.328Zm41.28 0h-10.32v-10.328h10.32v10.328Zm-608.82-20.657h-10.32v10.329h-10.33v-10.329h-20.63v-10.328h20.63v10.328h10.33v-20.657h10.32v20.657Zm-72.23 10.329h-30.96v-10.329h30.96v10.329Zm-745.03 0h10.32v-10.329h-10.32v10.329Zm20.64 0h10.32v-20.657h-10.32v20.657Zm383.86 0h10.32v-10.329H1715v10.329Zm72.23 0h10.32v-10.329h-10.32v10.329Zm123.83 0h-10.32v-10.329h10.32v10.329Zm526.27-20.657h-10.32v20.657h-10.33v-20.657h10.33v-10.329h10.32v10.329Zm20.64 20.657h-10.33v-10.329h10.33v10.329ZM1715 392.484h-10.32v10.328H1715v-10.328h10.32v-10.329H1715v10.329Zm-652.15 10.328h10.32v-10.328h-10.32v10.328Zm20.64 0h10.31v-10.328h-10.31v10.328Zm569.6 0h10.32v-10.328h-10.32v10.328Zm30.95-10.328h-10.31v10.328h10.31v-10.328h10.32v-10.329h-10.32v10.329Zm51.6 10.328h10.32v-10.328h-10.32v10.328Zm20.64 0h10.32v-10.328h-10.32v10.328Zm319.89 0h-10.32v-10.328h10.32v10.328Zm278.6 0h-10.31v-10.328h10.31v10.328Zm51.61 0h-10.33v-10.328h10.33v10.328Zm103.17-10.328h-10.32v10.328h-20.63v-10.328h20.63v-10.329h10.32v10.329Zm51.59 10.328h-10.3v-10.328h10.3v10.328Zm-412.75-10.328h-10.3v-10.329h10.3v10.329Zm-505.62 0h10.32v-10.329h-10.32v10.329Zm-321.95 0h10.32v-10.329h-10.32v10.329Zm30.96 0h10.32v-10.329h-10.32v10.329Zm20.64 0h10.31v-10.329h-10.31v10.329Zm20.63 0h10.32v-10.329h-10.32v10.329Zm394.18-10.329h-10.31v10.329h10.31v-10.329h10.32v-10.328h-10.32v10.328Zm41.28 10.329h10.32v-10.329h-10.32v10.329Zm216.7-10.329h-10.32v10.329h-20.64v-10.329h20.64v-10.328h10.32v10.328Zm10.32 0v10.329h-10.32v-10.329h10.32Zm134.15 0v10.329h-10.33v-10.329h10.33Zm72.22 10.329h-10.31v-10.329h10.31v10.329Zm30.95-10.329h-10.3v10.329h-10.33v-10.329h10.33v-20.657h10.3v20.657Zm61.92-10.328h-10.31v10.328h-10.32v10.329h-10.33v-10.329h10.33v-10.328h10.32v-10.329h10.31v10.329Zm20.65 20.657h-10.33v-10.329h10.33v10.329Zm82.55 0h-10.33v-10.329h10.33v10.329Zm82.54-10.329v10.329h-10.32v-10.329h10.32Zm-10.32 0h-10.31v-10.328h10.31v10.328Zm-340.51-10.328h-10.33v10.328h-10.33v-10.328h10.33v-10.329h10.33v10.329Zm-1106.19 10.328h10.31v-10.328h10.32v-10.329h-20.63v20.657Zm30.95 0h10.32v-10.328h-10.32v10.328Zm394.18 0h10.32v-10.328h-10.32v10.328Zm154.79 0h10.32v-10.328h-10.32v10.328Zm82.55 0h10.32v-10.328h-10.32v10.328Zm330.21 0h-10.32v-10.328h10.32v10.328Zm20.63 0h-10.32v-10.328h10.32v10.328Zm123.83-10.328h-10.32v10.328h-10.33v-10.328h10.33v-10.329h10.32v10.329Zm92.88 10.328h-10.33v-10.328h10.33v10.328Zm185.72-10.328h-10.31v10.328h-10.32v-10.328h10.32v-10.329h10.31v10.329Zm82.57 0v10.328h-10.33v-10.328h10.33Zm61.91 0h-10.33v10.328h-10.32v-10.328h10.32v-10.329h10.33v10.329Zm-72.24 0h-10.33v-10.329h10.33v10.329Zm-794.55 0h10.31v-10.329h-10.31v10.329Zm-383.87 0h10.32v-10.329h-10.32v10.329Zm43.34 0h10.32v-10.329h-10.32v10.329Zm144.47 0h10.32v-10.329h-10.32v10.329Zm61.91 0h10.32v-10.329h-10.32v10.329Zm51.59 0h10.32v-10.329h-10.32v10.329Zm319.89 0h-10.32v-10.329h10.32v10.329Zm113.51 0h-20.65v-10.329h20.65v10.329Zm30.96 0h-10.33V351.17h10.33v20.657Zm82.54 0h-10.32v-10.329h10.32v10.329Zm20.64 0h-10.31v-10.329h10.31v10.329Zm134.15 0h-10.32v-10.329h10.32v10.329Zm30.96 0h-10.33v-10.329h10.33v10.329Zm175.42 0h-10.33v-10.329h10.33v10.329Zm144.46 0h-10.31v-10.329h10.31v10.329Zm-1062.85-10.329h10.32V351.17h-10.32v10.328Zm-569.6 0h10.32V351.17h-10.32v10.328Zm299.25 0h12.38V351.17h-12.38v10.328Zm43.34 0h10.32V351.17h-10.32v10.328Zm41.28-10.328h10.31v10.328h10.32V351.17h10.32v-10.329h-10.32v10.329h-10.32v-10.329h-10.31v10.329Zm103.19 10.328h10.31V351.17h-10.31v10.328Zm20.63 0h10.32V351.17h-10.32v10.328Zm41.28 0h10.32V351.17h-10.32v10.328Zm51.59 0h10.32V351.17H1715v10.328Zm206.38-10.328v10.328h-10.32V351.17h10.32Zm30.96 0v10.328h-10.32V351.17h10.32Zm41.27 10.328h-10.32V351.17h10.32v10.328Zm51.6 0h-10.32V351.17h10.32v10.328Zm20.64 0h-10.32V351.17h10.32v10.328Zm30.95-10.328v10.328h-10.32V351.17h10.32Zm371.47 0v10.328h-10.3V351.17h10.3Zm-10.3 0h-10.33v-10.329h10.33v10.329Zm-371.49 0h-10.31v-10.329h10.31v10.329Zm-134.14-10.329h-10.32v10.329h-10.32v-10.329h10.32v-10.328h10.32v10.328Zm-796.62 0h-10.32v10.329h10.32v-10.329h10.32v-10.328h-10.32v10.328Zm425.14 10.329h10.32v-10.329h-10.32v10.329Zm61.91 0h10.32v-10.329h-10.32v10.329Zm92.87 0h10.32v-20.657h-10.32v20.657Zm92.87-30.986v10.329h-10.32v10.328h-10.32v10.329h-10.32v-10.329h-10.32v-10.328h10.32v10.328h10.32v-10.328h10.32v-10.329h10.32Zm154.78 20.657h-10.31v10.329h-10.32v-10.329h10.32v-10.328h10.31v10.328Zm41.28 10.329h-10.32v-10.329h10.32v10.329Zm92.87 0h-10.33v-10.329h10.33v10.329Zm20.65 0h-10.33v-10.329h10.33v10.329Zm41.26 0h-10.33v-10.329h10.33v10.329Zm20.63 0h-10.3v-10.329h10.3v10.329Zm51.61-10.329v10.329h-10.33v-10.329h10.33Zm41.26 10.329h-10.3v-10.329h10.3v10.329Zm20.66 0h-10.33v-10.329h10.33v10.329Zm20.63 0h-10.33v-10.329h10.33v10.329Zm154.78 0h-10.32v-10.329h10.32v10.329Zm20.63 0h-10.32v-10.329h10.32v10.329Zm41.29 0h-10.33v-10.329h10.33v10.329Zm92.87 0h-10.33v-10.329h10.33v10.329Zm-402.45-10.329h-10.32v-10.328h10.32v10.328Zm-1064.91 0h10.32v-10.328h-10.32v10.328Zm260.04 0h10.32v-10.328h-10.32v10.328Zm41.28 0h10.32v-10.328h-10.32v10.328Zm72.23 0h10.32v-10.328h-10.32v10.328Zm51.6 0h10.31v-10.328h-10.31v10.328Zm72.23-20.657h10.31v10.329h-10.31v10.328h10.31v-10.328h10.32v-10.329h10.32v-10.328h-10.32v10.328h-10.32v-10.328h-10.31v10.328Zm41.27 10.329h-10.32v10.328H1715v-10.328h10.32v-10.329H1715v10.329Zm650.09 10.328h-10.32v-10.328h10.32v10.328Zm41.29-20.657h-10.33v10.329h-10.32v10.328h-10.31v-10.328h10.31v-10.329h10.32v-10.328h10.33v10.328Zm20.63 10.329h-10.33v10.328h-10.3v-10.328h10.3v-10.329h10.33v10.329Zm185.74 0h-10.32v10.328h-10.33v-10.328h10.33v-10.329h10.32v10.329Zm72.22 10.328h-20.63v-10.328h20.63v10.328Zm-1155.71-10.328h10.32v-10.329h-10.32v10.329Zm51.6 0h10.32v-10.329h-10.32v10.329Zm61.91 0h10.32v-10.329h-10.32v10.329Zm257.97 0h-10.32v-10.329h10.32v10.329Zm113.51 0h-10.32v-10.329h10.32v10.329Zm206.38 0h-10.32v-10.329h10.32v10.329Zm61.92-10.329h10.3v-10.328h10.33v10.328h-10.33v10.329h-10.3v-10.329h-10.33v-10.328h10.33v10.328Zm227 10.329h-10.32v-10.329h10.32v10.329Zm72.25 0h-10.33v-10.329h10.33v10.329Zm123.82 0h-10.32v-10.329h10.32v10.329Zm-887.43-10.329h-10.32v-10.328h10.32v10.328Zm-652.15 0h10.31v-10.328h-10.31v10.328Zm20.63 0h10.32v-10.328h-10.32v10.328Zm20.64 0h10.32v-10.328h-10.32v10.328Zm404.5 0h10.32v-10.328h-10.32v10.328Zm309.57 0h-10.32v-10.328h10.32v10.328Zm41.28 0h-10.32v-10.328h10.32v10.328Zm30.95 0h-10.32v-10.328h10.32v10.328Zm51.6-10.328v10.328h-10.32v-10.328h10.32Zm92.88 10.328h-10.33v-10.328h10.33v10.328Zm30.93-10.328h-10.3v10.328h-10.33v-10.328h10.33v-10.329h10.3v10.329Zm299.25 0h-10.3v10.328h-10.33v-10.328h10.33v-10.329h10.3v10.329Zm185.75 10.328h-10.31v-10.328h10.31v10.328Zm82.56 0h-10.32v-10.328h10.32v10.328Zm-701.69-10.328h-10.32v-10.329h10.32v10.329Zm-371.48 0h10.32v-10.329h-10.32v10.329Zm-103.19 0h10.32v-10.329h-10.32v10.329Zm237.33 0h-10.32v-10.329h10.32v10.329Zm61.92 0h-20.64v-10.329h20.64v10.329Zm30.95 0h-10.31v-10.329h10.31v10.329Zm185.75-10.329h-10.32v10.329h-10.32v-10.329h10.32v-10.328h10.32v10.328Zm10.31 0v10.329h-10.31v-10.329h10.31Zm103.2 10.329h-10.33v-10.329h10.33v10.329Zm154.78 0h-20.65v-10.329h20.65v10.329Zm247.64-10.329v10.329h-10.3v-10.329h10.3Zm30.96 10.329h-10.31v-10.329h10.31v10.329Zm134.15 0h-10.32v-10.329h10.32v10.329Zm-175.41-10.329h-10.33v-10.328h10.33v10.328Zm-1364.17 0h10.32v-10.328h-10.32v10.328Zm30.96 0h10.32v-30.985h-10.32v30.985Zm61.91 0h10.32v-10.328h-10.32v10.328Zm270.36 0h10.32v-10.328h-10.32v10.328Zm30.95 0h10.32v-10.328h-10.32v10.328Zm402.44 0h-10.32v-10.328h10.32v10.328Zm113.51 0h-10.32v-10.328h10.32v10.328Zm237.33 0h-10.32v-10.328h10.32v10.328Zm30.96 0h-10.32v-10.328h10.32v10.328Zm113.5 0h-10.32v-10.328h10.32v10.328Zm20.64 0h-10.31v-10.328h10.31v10.328Zm-877.1-30.985v20.657h-10.32v-20.657h10.32Zm-51.59 20.657h10.31v-20.657h-10.31v20.657Zm-435.46 0h-10.32V278.87h10.32v10.329Zm113.5 0h10.32V278.87h-10.32v10.329Zm177.49 0h10.32V278.87h-10.32v10.329Zm51.59 0h10.32V278.87h-10.32v10.329Zm41.28 0h10.32V278.87h-10.32v10.329Zm216.7 0h-10.32v-20.657h10.32v20.657Zm196.06 0h-10.32V278.87h10.32v10.329Zm82.55 0h-10.32V278.87h10.32v10.329Zm123.81 0h-10.3v-20.657h10.3v20.657Zm30.96-10.329h-10.3v10.329h-10.33V278.87h10.33v-10.328h10.3v10.328Zm20.65 10.329h-10.32V278.87h10.32v10.329Zm206.38 0h-20.63V278.87h20.63v10.329ZM1196.99 278.87h-10.32v-10.328h10.32v10.328Zm103.19 0h10.32v-10.328h-10.32v10.328Zm20.64-10.328h10.32v10.328h10.32v-10.328h10.32v-10.329h-10.32v10.329h-10.32v-10.329h-10.32v10.329Zm61.91 10.328h10.32v-10.328h-10.32v10.328Zm94.94 0h10.32v-10.328h-10.32v10.328Zm92.87 0h10.32v-20.657h-10.32v20.657Zm526.26-10.328h-10.32v10.328h-10.31v-10.328h10.31v-10.329h10.32v10.329Zm20.64 10.328h-10.33v-10.328h10.33v10.328Zm206.37 0h-10.3v-10.328h10.3v10.328Zm134.16 0h-20.64v-10.328h20.64v10.328Zm113.5 0h-10.33v-10.328h10.33v10.328Zm51.59 0h-10.31v-10.328h10.31v10.328Zm103.2 0h-10.33v-10.328h10.33v10.328Zm-1135.08-10.328h10.32v-10.329h-10.32v10.329Zm-229.08 0h10.32v-10.329h-10.32v10.329Zm63.97-10.329h-12.38v10.329h12.38v-10.329h10.32v-20.657h-10.32v20.657Zm30.96 10.329h10.32v-10.329h-10.32v10.329Zm30.96-10.329h10.32v10.329h10.31v-10.329h10.32v-10.329h-10.32v10.329h-10.31v-10.329h-10.32v10.329Zm257.97 10.329h-10.32v-10.329h10.32v10.329Zm72.23 0h-10.32v-10.329h10.32v10.329Zm103.19 0h-10.32v-10.329h10.32v10.329Zm319.88 0h-10.32v-10.329h10.32v10.329Zm30.96 0h-10.32v-10.329h10.32v10.329Zm20.63 0h-10.3v-10.329h10.3v10.329Zm61.92 0h-10.31v-10.329h10.31v10.329Zm144.46 0h-10.31v-10.329h10.31v10.329Zm165.11 0h-10.32v-10.329h10.32v10.329Zm82.55 0h-10.31v-10.329h10.31v10.329Zm-1062.85-10.329h-10.31v-10.329h10.31v10.329Zm185.75 0h-10.32v-10.329h10.32v10.329Zm299.23 0h-10.3v-10.329h10.3v10.329Zm51.61 0h-10.32v-10.329h10.32v10.329Zm103.18-10.329h-10.3v10.329h-10.33v-10.329h10.33v-10.328h10.3v10.328Zm134.16 10.329h-10.33v-10.329h10.33v10.329Zm92.87 0h-10.33v-10.329h10.33v10.329Zm30.96-10.329h-10.33v10.329h-10.33v-10.329h10.33v-10.328h10.33v10.328Zm134.13 10.329h-20.63v-10.329h20.63v10.329Zm-1395.11-10.329h-10.32v-10.328h10.32v10.328Zm383.86 0h-10.32v-10.328h10.32v10.328Zm268.3 0h-10.32v-10.328h10.32v10.328Zm113.5 0h-10.31v-10.328h10.31v10.328Zm515.95 0h-10.33v-10.328h10.33v10.328Zm144.46 0h-20.63v-10.328h20.63v10.328Zm61.91 0h-10.3v-10.328h10.3v10.328Zm51.59 0h-10.3v-10.328h10.3v10.328ZM1601.5 237.556h-10.32v-10.329h10.32v10.329Zm526.26 0h-10.32v-10.329h10.32v10.329Zm113.5 0h-10.32v-10.329h10.32v10.329Zm144.47 0h-10.31v-10.329h10.31v10.329Zm113.5 0h-10.31v-10.329h10.31v10.329Zm123.83 0h-10.31v-10.329h10.31v10.329Zm20.65 0h-10.33v-10.329h10.33v10.329Zm123.83 0h-10.33v-10.329h10.33v10.329Zm-1384.81-10.329h-10.31v-10.328h10.31v10.328Zm94.94 0h-10.32v-10.328h10.32v10.328Zm20.64 0h-10.32v-10.328h10.32v10.328Zm82.55 0h-10.32v-10.328h10.32v10.328Zm61.91 0h-10.32v-10.328h10.32v10.328Zm381.8 0h-10.32v-10.328h10.32v10.328Zm134.15 0h-20.63v-10.328h20.63v10.328Zm113.5 0h-10.32v-10.328h10.32v10.328Zm144.46 0h-20.63v-10.328h20.63v10.328Zm103.2 0h-10.33v-10.328h10.33v10.328Zm154.79 0h-10.33v-10.328h10.33v10.328Zm237.33 0h-10.33v-10.328H2912v10.328Zm-1485.93-10.328h-12.38V206.57h12.38v10.329Zm103.19 0h-10.32V206.57h10.32v10.329Zm82.55 0h-10.31V206.57h10.31v10.329Zm340.53 0h-10.32V206.57h10.32v10.329Zm227.01 0h-10.33V206.57h10.33v10.329Zm154.79 0h-10.33V206.57h10.33v10.329Zm144.46-10.329h-10.33v10.329h-20.63V206.57h20.63v-10.328h10.33v10.328Zm20.63 10.329h-10.31V206.57h10.31v10.329Zm299.27 0h-10.33V206.57h10.33v10.329ZM1457.03 206.57h-10.32v-10.328h10.32v10.328Zm784.23 0h-10.32v-10.328h10.32v10.328Zm51.59 0h-10.3v-10.328h10.3v10.328Zm20.66 0h-10.33v-10.328h10.33v10.328Zm51.58 0h-10.32v-10.328h10.32v10.328Zm247.66 0h-10.32v-10.328h10.32v10.328Zm92.87 0h-10.32v-10.328h10.32v10.328Zm61.92 0h-10.33v-10.328h10.33v10.328Zm-732.65-10.328h-10.32v-10.329h10.32v10.329Zm237.33 0h-10.32v-10.329h10.32v10.329Zm247.66 0h-10.33v-10.329h10.33v10.329Zm134.14 0h-30.96v-10.329h30.96v10.329Zm92.87 0h-10.31v-10.329h10.31v10.329Zm113.5 0h-10.3v-10.329h10.3v10.329Zm-856.46-10.329h-10.32v-10.328h10.32v10.328Zm51.6 0h-10.32v-10.328h10.32v10.328Zm257.98 0h-20.66v-10.328h20.66v10.328Zm61.91-10.328v10.328h-10.33v-10.328h10.33Zm51.59 10.328h-10.33v-10.328h10.33v10.328Zm123.83 0h-10.33v-10.328h10.33v10.328Zm123.83 0h-10.33v-20.657h10.33v20.657Zm-309.58-10.328h-10.32v-10.329h10.32v10.329Zm-103.19 0h-10.31v-10.329h10.31v10.329Zm227.02 0h-10.32v-10.329h10.32v10.329Zm113.51 0h-10.33v-10.329h10.33v10.329Zm-484.99-10.329h-10.33v-10.328h10.33v10.328Zm61.91 0h-10.33v-10.328h10.33v10.328Zm227.03 0h-10.33v-10.328h10.33v10.328Zm103.17 0h-10.32v-10.328h10.32v10.328Zm123.83 0h-10.32v-10.328h10.32v10.328Zm103.2 0h-10.32v-10.328h10.32v10.328Zm20.63 0h-10.32v-10.328h10.32v10.328Zm-1300.18-10.328h-10.32v-10.329h10.32v10.329Zm835.82 0h-10.3v-10.329h10.3v10.329Zm144.48 0h-20.65v-10.329h20.65v10.329Zm103.18 0h-10.32v-10.329h10.32v10.329Zm247.66 0h-10.33v-10.329h10.33v10.329Zm-856.47-10.329h-10.32v-10.328h10.32v10.328Zm268.28 0h-10.3v-10.328h10.3v10.328Zm257.99 0h-10.33v-10.328h10.33v10.328Zm165.09 0h-10.31v-10.328h10.31v10.328Zm216.7 0h-10.33v-10.328h10.33v10.328Zm-1331.14-10.328h-10.31v-10.329h10.31v10.329Zm92.88 0h-10.32v-10.329h10.32v10.329Zm742.96 0h-10.32v-10.329h10.32v10.329Zm185.73 0h-10.31v-10.329h10.31v10.329Zm30.95 0h-10.3v-10.329h10.3v10.329Zm92.88-10.329h-10.31v10.329h-10.33v-10.329h10.33v-10.328h10.31v10.328Zm92.87 10.329h-10.31v-10.329h10.31v10.329Zm72.24 0h-10.33v-10.329h10.33v10.329Zm-660.41-10.329h-10.33v-10.328h10.33v10.328Zm536.58-10.328v10.328h-10.33v-10.328h10.33Zm82.54 10.328h-10.3v-10.328h10.3v10.328Zm123.83 0h-10.32v-10.328h10.32v10.328Zm-216.7-10.328h-10.3v-10.329h10.3v10.329Zm-123.83 0h-10.3v-10.329h10.3v10.329Zm20.66 0h-10.33v-10.329h10.33v10.329Zm227-10.329v10.329h-10.3v-10.329h10.3Zm-10.3 0h-10.33V92.957h10.33v10.328Zm-629.48 0h-10.3V92.957h10.3v10.328Zm165.12 0h-10.33V92.957h10.33v10.328Zm134.13 0h-10.3V92.957h10.3v10.328Zm134.16 0h-10.33V92.957h10.33v10.328Zm113.5 0h-20.63V92.957h20.63v10.328Zm134.16 0h-10.33V92.957h10.33v10.328Zm-784.24-10.328h-10.32V82.628h10.32v10.329Zm557.21 0h-10.31V82.628h10.31v10.329Zm41.28 0h-10.32V82.628h10.32v10.329Zm103.2 0h-10.33V82.628h10.33v10.329Zm-474.69-10.329h-10.3V72.3h10.3v10.33Zm92.88 0h-10.31V72.3h10.31v10.33Zm257.98 0h-10.33V72.3h10.33v10.33Zm154.79 0h-10.33V72.3h10.33v10.33Zm20.63 0h-10.33V72.3h10.33v10.33ZM2416.68 72.3h-10.3V61.971h10.3v10.328Zm268.29 0h-10.3V61.971h10.3v10.328Zm41.29 0h-10.33V61.971h10.33v10.328Zm-773.92-10.328h-10.32V51.643h10.32V61.97Zm134.14 0h-10.31V51.643h10.31V61.97Zm113.5 0h-10.3V51.643h10.3V61.97Zm268.29 0h-10.3V51.643h10.3V61.97Zm278.62 0h-10.31V41.314h10.31v20.657Zm82.54 0h-10.3V51.643h10.3V61.97Zm30.96 0h-10.3V51.643h10.3V61.97Zm-742.95-10.328h-10.33V41.313h10.33v10.328Zm392.11 0h-10.32V41.313h10.32v10.328Zm257.99 0h-10.33V41.313h10.33v10.328Zm41.26 0h-10.3V41.313h10.3v10.328Zm92.87 0h-10.32V41.313h10.32v10.328Zm-61.91-10.329h-10.33v-10.33h10.33v10.329Zm-113.5-10.329h-10.33V20.657h10.33v10.328Zm61.91 0h-10.33V20.657h10.33v10.328Zm-41.28-20.656h-10.31V0h10.31v10.329Z"/></svg>